<?xml version="1.0" encoding="UTF-8" standalone="no"?>
<!-- Created with Inkscape (http://www.inkscape.org/) -->

<svg
   width="1920"
   height="1149.0366"
   viewBox="0 0 508 304.01594"
   version="1.1"
   id="svg1"
   inkscape:version="1.3.2 (091e20ef0f, 2023-11-25, custom)"
   inkscape:export-filename="../../../Documents/porta-vermelha.github.io/ICC/BT/minimapa.svg"
   inkscape:export-xdpi="40"
   inkscape:export-ydpi="40"
   sodipodi:docname="minimapa.svg"
   xmlns:inkscape="http://www.inkscape.org/namespaces/inkscape"
   xmlns:sodipodi="http://sodipodi.sourceforge.net/DTD/sodipodi-0.dtd"
   xmlns="http://www.w3.org/2000/svg"
   xmlns:svg="http://www.w3.org/2000/svg">
  <sodipodi:namedview
     id="namedview1"
     pagecolor="#ffffff"
     bordercolor="#eeeeee"
     borderopacity="1"
     inkscape:showpageshadow="0"
     inkscape:pageopacity="0"
     inkscape:pagecheckerboard="0"
     inkscape:deskcolor="#505050"
     inkscape:document-units="mm"
     showgrid="true"
     showguides="false"
     inkscape:export-bgcolor="#ffffffff"
     inkscape:zoom="0.36245713"
     inkscape:cx="827.6841"
     inkscape:cy="906.31409"
     inkscape:window-width="1366"
     inkscape:window-height="768"
     inkscape:window-x="0"
     inkscape:window-y="0"
     inkscape:window-maximized="1"
     inkscape:current-layer="layer1">
    <inkscape:grid
       id="grid1"
       units="px"
       originx="0"
       originy="-5.8342681"
       spacingx="7.9375"
       spacingy="7.9375"
       empcolor="#000000"
       empopacity="0.30196078"
       color="#000000"
       opacity="0.14901961"
       empspacing="4"
       dotted="false"
       gridanglex="30"
       gridanglez="30"
       visible="true" />
  </sodipodi:namedview>
  <defs
     id="defs1" />
  <g
     inkscape:label="Layer 1"
     inkscape:groupmode="layer"
     id="layer1"
     transform="translate(0,-5.8342681)">
    <path
       id="rect2"
       style="fill:#cc1919;stroke-width:1.32292;stroke-linecap:square;stroke-miterlimit:3;paint-order:fill markers stroke"
       d="m 15.46087,198.4375 h 4.417391 V 222.25 H 15.46087 Z" />
    <path
       id="rect2-7"
       style="fill:#cc1919;stroke-width:1.32292;stroke-linecap:square;stroke-miterlimit:3;paint-order:fill markers stroke"
       d="m 48.591305,198.4375 h 4.417391 V 222.25 h -4.417391 z" />
    <path
       id="rect2-7-6"
       style="stroke-width:1.32292;stroke-linecap:square;stroke-miterlimit:3;paint-order:fill markers stroke"
       d="m 86.13913,198.4375 h 4.417391 V 238.125 H 86.13913 Z" />
    <path
       id="rect2-7-6-6"
       style="fill:#cc1919;stroke-width:1.32292;stroke-linecap:square;stroke-miterlimit:3;paint-order:fill markers stroke"
       d="m 119.26956,198.4375 h 4.41739 V 222.25 h -4.41739 z" />
    <path
       id="rect2-7-6-6-9"
       style="fill:#cc1919;stroke-width:1.32292;stroke-linecap:square;stroke-miterlimit:3;paint-order:fill markers stroke"
       d="m 159.02609,198.4375 h 4.41739 V 222.25 h -4.41739 z" />
    <path
       id="rect2-3"
       style="fill:#cc1919;stroke-width:1.32292;stroke-linecap:square;stroke-miterlimit:3;paint-order:fill markers stroke"
       d="m 187.73915,198.4375 h 4.41739 V 222.25 h -4.41739 z" />
    <path
       id="rect2-7-7"
       style="fill:#cc1919;stroke-width:1.32292;stroke-linecap:square;stroke-miterlimit:3;paint-order:fill markers stroke"
       d="m 223.07825,198.4375 h 4.41739 V 222.25 h -4.41739 z" />
    <path
       id="rect2-7-6-5"
       style="stroke-width:1.32292;stroke-linecap:square;stroke-miterlimit:3;paint-order:fill markers stroke"
       d="m 251.79132,198.4375 h 4.41739 v 39.6875 h -4.41739 z" />
    <path
       id="rect2-7-6-6-92"
       style="fill:#cc1919;stroke-width:1.32292;stroke-linecap:square;stroke-miterlimit:3;paint-order:fill markers stroke"
       d="m 280.50436,198.4375 h 4.4174 V 222.25 h -4.4174 z" />
    <path
       id="rect2-7-6-6-9-2"
       style="fill:#cc1919;stroke-width:1.32292;stroke-linecap:square;stroke-miterlimit:3;paint-order:fill markers stroke"
       d="m 315.84348,198.4375 h 4.41739 V 222.25 h -4.41739 z" />
    <path
       id="rect2-36"
       style="fill:#cc1919;stroke-width:1.32292;stroke-linecap:square;stroke-miterlimit:3;paint-order:fill markers stroke"
       d="m 344.55652,198.4375 h 4.41739 V 222.25 h -4.41739 z" />
    <path
       id="rect2-7-1"
       style="fill:#cc1919;stroke-width:1.32292;stroke-linecap:square;stroke-miterlimit:3;paint-order:fill markers stroke"
       d="m 384.31305,198.4375 h 4.41739 V 222.25 h -4.41739 z" />
    <path
       id="rect2-7-6-2"
       style="stroke-width:1.32292;stroke-linecap:square;stroke-miterlimit:3;paint-order:fill markers stroke"
       d="m 417.44348,198.4375 h 4.41739 v 39.6875 h -4.41739 z" />
    <path
       id="rect2-7-6-6-93"
       style="fill:#cc1919;stroke-width:1.32292;stroke-linecap:square;stroke-miterlimit:3;paint-order:fill markers stroke"
       d="m 454.9913,198.4375 h 4.41739 V 222.25 h -4.41739 z" />
    <path
       id="rect2-7-6-6-9-1"
       style="fill:#cc1919;stroke-width:1.32292;stroke-linecap:square;stroke-miterlimit:3;paint-order:fill markers stroke"
       d="m 488.12173,198.4375 h 4.4174 V 222.25 h -4.4174 z" />
    <path
       id="path2"
       style="fill:#4861c1;stroke-width:1.32292;stroke-linecap:square;stroke-miterlimit:3;paint-order:fill markers stroke"
       d="M 15.875,134.9375 A 7.9375,7.9375 0 0 1 7.9375,142.875 7.9375,7.9375 0 0 1 0,134.9375 7.9375,7.9375 0 0 1 7.9375,127 a 7.9375,7.9375 0 0 1 7.9375,7.9375 z" />
    <path
       id="path2-4"
       style="fill:#4861c1;stroke-width:1.32292;stroke-linecap:square;stroke-miterlimit:3;paint-order:fill markers stroke"
       d="m 144.1404,134.9375 a 7.9375,7.9375 0 0 1 -7.9375,7.9375 7.9375,7.9375 0 0 1 -7.9375,-7.9375 7.9375,7.9375 0 0 1 7.9375,-7.9375 7.9375,7.9375 0 0 1 7.9375,7.9375 z" />
    <path
       id="path2-48"
       style="fill:#4861c1;stroke-width:1.32292;stroke-linecap:square;stroke-miterlimit:3;paint-order:fill markers stroke"
       d="m 250.15781,134.9375 a 7.9375,7.9375 0 0 1 -7.9375,7.9375 7.9375,7.9375 0 0 1 -7.9375,-7.9375 7.9375,7.9375 0 0 1 7.9375,-7.9375 7.9375,7.9375 0 0 1 7.9375,7.9375 z" />
    <path
       id="path2-2"
       style="fill:#4861c1;stroke-width:1.32292;stroke-linecap:square;stroke-miterlimit:3;paint-order:fill markers stroke"
       d="m 416.5462,134.9375 a 7.9375,7.9375 0 0 1 -7.9375,7.9375 7.9375,7.9375 0 0 1 -7.9375,-7.9375 7.9375,7.9375 0 0 1 7.9375,-7.9375 7.9375,7.9375 0 0 1 7.9375,7.9375 z" />
    <path
       id="path2-6"
       style="fill:#4861c1;stroke-width:1.32292;stroke-linecap:square;stroke-miterlimit:3;paint-order:fill markers stroke"
       d="m 502.68533,134.9375 a 7.9375,7.9375 0 0 1 -7.9375,7.9375 7.9375,7.9375 0 0 1 -7.9375,-7.9375 7.9375,7.9375 0 0 1 7.9375,-7.9375 7.9375,7.9375 0 0 1 7.9375,7.9375 z" />
    <path
       style="fill:#6dc500;fill-opacity:1;stroke:none;stroke-width:1.32292;stroke-linecap:square;stroke-miterlimit:3;stroke-opacity:1;paint-order:fill markers stroke"
       d="m 343.24512,142.875 7.9375,-15.875 7.9375,15.875 z"
       id="path3-1" />
    <path
       style="fill:#6dc500;fill-opacity:1;stroke:none;stroke-width:1.32292;stroke-linecap:square;stroke-miterlimit:3;stroke-opacity:1;paint-order:fill markers stroke"
       d="m 413.92337,142.875 7.9375,-15.875 7.9375,15.875 z"
       id="path3-1-9" />
    <path
       style="fill:#6dc500;fill-opacity:1;stroke:none;stroke-width:1.32292;stroke-linecap:square;stroke-miterlimit:3;stroke-opacity:1;paint-order:fill markers stroke"
       d="m 473.55817,142.875 7.9375,-15.875 7.9375,15.875 z"
       id="path3-1-7" />
    <path
       style="fill:#6dc500;fill-opacity:1;stroke:none;stroke-width:1.32292;stroke-linecap:square;stroke-miterlimit:3;stroke-opacity:1;paint-order:fill markers stroke"
       d="m 199.6799,142.875 7.9375,-15.875 7.9375,15.875 z"
       id="path3-1-5" />
    <path
       style="fill:#6dc500;fill-opacity:1;stroke:none;stroke-width:1.32292;stroke-linecap:square;stroke-miterlimit:3;stroke-opacity:1;paint-order:fill markers stroke"
       d="m 142.2538,142.875 7.9375,-15.875 7.9375,15.875 z"
       id="path3-1-56" />
    <path
       style="fill:#6dc500;fill-opacity:1;stroke:none;stroke-width:1.32292;stroke-linecap:square;stroke-miterlimit:3;stroke-opacity:1;paint-order:fill markers stroke"
       d="m 78.20163,142.875 7.9375,-15.875 7.9375,15.875 z"
       id="path3-1-8" />
    <path
       id="rect3"
       style="fill:#4861c1;stroke-width:1.32292;stroke-linecap:square;stroke-miterlimit:3;paint-order:fill markers stroke"
       transform="scale(1,-1)"
       d="m 5.7288046,-166.6875 h 4.4173914 v 15.875 H 5.7288046 Z" />
    <path
       id="rect3-3"
       style="fill:#6dc500;stroke-width:1.32292;stroke-linecap:square;stroke-miterlimit:3;paint-order:fill markers stroke"
       transform="scale(1,-1)"
       d="m 83.930435,-166.6875 h 4.417391 v 15.875 h -4.417391 z" />
    <path
       id="rect3-8"
       style="fill:#4861c1;stroke-width:1.32292;stroke-linecap:square;stroke-miterlimit:3;paint-order:fill markers stroke"
       transform="scale(1,-1)"
       d="m 133.9942,-166.6875 h 4.41739 v 15.875 h -4.41739 z" />
    <path
       id="rect3-6"
       style="fill:#6dc500;stroke-width:1.32292;stroke-linecap:square;stroke-miterlimit:3;paint-order:fill markers stroke"
       transform="scale(1,-1)"
       d="M 147.9826,-166.6875 H 152.4 v 15.875 h -4.4174 z" />
    <path
       id="rect3-61"
       style="fill:#6dc500;stroke-width:1.32292;stroke-linecap:square;stroke-miterlimit:3;paint-order:fill markers stroke"
       transform="scale(1,-1)"
       d="m 205.40871,-166.6875 h 4.41739 v 15.875 h -4.41739 z" />
    <path
       id="rect3-84"
       style="fill:#4861c1;stroke-width:1.32292;stroke-linecap:square;stroke-miterlimit:3;paint-order:fill markers stroke"
       transform="scale(1,-1)"
       d="m 240.01161,-166.6875 h 4.41739 v 15.875 h -4.41739 z" />
    <path
       id="rect3-30"
       style="fill:#6dc500;stroke-width:1.32292;stroke-linecap:square;stroke-miterlimit:3;paint-order:fill markers stroke"
       transform="scale(1,-1)"
       d="m 348.97394,-166.6875 h 4.41739 v 15.875 h -4.41739 z" />
    <path
       id="rect3-4"
       style="fill:#4861c1;stroke-width:1.32292;stroke-linecap:square;stroke-miterlimit:3;paint-order:fill markers stroke"
       transform="scale(1,-1)"
       d="m 406.39999,-166.6875 h 4.4174 v 15.875 h -4.4174 z" />
    <path
       id="rect3-1"
       style="fill:#6dc500;stroke-width:1.32292;stroke-linecap:square;stroke-miterlimit:3;paint-order:fill markers stroke"
       transform="scale(1,-1)"
       d="m 419.65216,-166.6875 h 4.41739 v 15.875 h -4.41739 z" />
    <path
       id="rect3-62"
       style="fill:#6dc500;stroke-width:1.32292;stroke-linecap:square;stroke-miterlimit:3;paint-order:fill markers stroke"
       transform="scale(1,-1)"
       d="m 479.28699,-166.6875 h 4.41739 v 15.875 h -4.41739 z" />
    <path
       id="rect3-5"
       style="fill:#4861c1;stroke-width:1.32292;stroke-linecap:square;stroke-miterlimit:3;paint-order:fill markers stroke"
       transform="scale(1,-1)"
       d="m 492.53912,-166.6875 h 4.41739 v 15.875 h -4.41739 z" />
    <path
       d="M 15.601712,12.892473 V 31.75 H 21.19837 V 12.892473 h 7.664212 V 7.9374706 H 7.9375002 v 4.9550024 z m 11.585443,9.910005 c 0,5.84619 3.956872,9.375292 9.69612,9.375292 2.887447,0 5.881837,-1.247662 7.735507,-3.956872 l -4.313347,-1.56849 c -0.677303,0.784245 -1.889318,1.318957 -3.56475,1.318957 -1.99626,0 -3.921225,-1.212015 -4.099463,-3.70734 h 13.082632 c 0.356475,-6.238312 -3.243922,-10.69425 -9.054464,-10.69425 -5.168888,0 -9.482235,3.600398 -9.482235,9.232703 z m 5.454067,-1.746728 c 0.320828,-2.42403 2.13885,-3.457807 4.170758,-3.457807 2.103202,0 3.814282,1.176367 3.885577,3.457807 z m 1.99626,-9.767414 h 4.063815 L 41.37486,9.3277231 c 0.42777,-0.356475 0.677302,-0.8911875 0.677302,-1.497195 0,-1.14072 -0.85554,-1.9962599 -1.99626,-1.9962599 -0.85554,0 -1.318957,0.4634175 -1.461547,0.6416549 z M 53.708891,31.75 v -8.911875 c 0,-2.816152 1.4259,-3.956872 4.063815,-3.956872 0.499065,0 0.891187,0.03565 1.461547,0.106942 v -5.41842 c -2.70921,-0.14259 -4.598527,0.891188 -5.703599,3.742988 L 52.568171,14.06884 h -4.2777 V 31.75 Z m 13.260864,0 v -8.911875 c 0,-2.816152 1.4259,-3.956872 4.063815,-3.956872 0.499065,0 0.891188,0.03565 1.461548,0.106942 v -5.41842 c -2.70921,-0.14259 -4.598528,0.891188 -5.7036,3.742988 L 65.829035,14.06884 h -4.2777 V 31.75 Z m 6.915602,-8.947522 c 0,5.84619 3.956872,9.375292 9.69612,9.375292 2.887447,0 5.881837,-1.247662 7.735507,-3.956872 l -4.313347,-1.56849 c -0.677303,0.784245 -1.889318,1.318957 -3.56475,1.318957 -1.99626,0 -3.921225,-1.212015 -4.099463,-3.70734 h 13.082633 c 0.356475,-6.238312 -3.243923,-10.69425 -9.054465,-10.69425 -5.168888,0 -9.482235,3.600398 -9.482235,9.232703 z m 9.624825,-5.204535 c 2.103202,0 3.814282,1.176367 3.885577,3.457807 h -8.056335 c 0.320828,-2.42403 2.13885,-3.457807 4.170758,-3.457807 z m 10.551658,5.240182 c 0,6.380903 4.455938,9.339645 9.37529,9.339645 4.84806,0 9.33965,-2.958742 9.33965,-9.339645 0,-6.380902 -4.49159,-9.26835 -9.33965,-9.26835 -4.919352,0 -9.37529,2.887448 -9.37529,9.26835 z m 9.37529,-5.061945 c 2.1032,0 3.81428,1.318958 3.81428,5.061945 0,3.70734 -1.63978,5.13324 -3.81428,5.13324 -2.21014,0 -3.849927,-1.4259 -3.849927,-5.13324 0,-3.742987 1.711077,-5.061945 3.849927,-5.061945 z M 126.608,7.9374706 V 31.75 h 10.80119 c 5.77489,0 9.62482,-1.99626 9.62482,-7.343385 0,-2.887447 -1.56849,-4.56288 -3.77863,-5.311477 1.78237,-1.105073 2.81615,-2.780505 2.81615,-4.955003 0,-4.9906494 -3.88558,-6.2026644 -9.05446,-6.2026644 z m 10.83684,13.7599344 c 2.42403,0 3.63604,0.99813 3.63604,2.673563 0,1.675432 -1.21201,2.70921 -3.63604,2.70921 h -5.20454 v -5.382773 z m -0.24954,-9.161407 c 1.88932,0 3.03004,0.891187 3.03004,2.388382 0,1.461548 -1.14072,2.42403 -3.03004,2.42403 h -4.955 v -4.812412 z m 12.69049,14.223352 c 0,4.170758 1.49719,4.99065 5.84619,4.99065 h 3.4578 v -4.42029 h -1.53284 c -1.81802,0 -2.35273,-0.320827 -2.35273,-1.99626 V 7.9374706 h -5.41842 z m 10.26646,-3.921225 c 0,6.380903 4.45594,9.339645 9.37529,9.339645 4.84806,0 9.33965,-2.958742 9.33965,-9.339645 0,-6.380902 -4.49159,-9.26835 -9.33965,-9.26835 -4.91935,0 -9.37529,2.887448 -9.37529,9.26835 z m 9.37529,-5.061945 c 2.1032,0 3.81428,1.318958 3.81428,5.061945 0,3.70734 -1.63978,5.13324 -3.81428,5.13324 -2.21014,0 -3.84993,-1.4259 -3.84993,-5.13324 0,-3.742987 1.71108,-5.061945 3.84993,-5.061945 z m 20.10518,14.40159 c 2.81616,0 6.09573,-1.069425 7.91375,-4.2777 l -4.42029,-1.604137 c -0.60601,1.033777 -1.67543,1.675432 -3.17263,1.675432 -1.92496,0 -3.84993,-1.28331 -3.84993,-5.13324 0,-3.742987 1.88932,-5.061945 3.84993,-5.061945 1.35461,0 2.56662,0.57036 3.13698,2.067555 l 4.52723,-1.639785 c -1.63978,-3.493455 -4.955,-4.634175 -7.98504,-4.634175 -5.38277,0 -9.05446,3.671693 -9.05446,9.232703 0,5.596657 3.20827,9.375292 9.05446,9.375292 z m 9.48225,-9.339645 c 0,6.380903 4.45594,9.339645 9.37529,9.339645 4.84806,0 9.33965,-2.958742 9.33965,-9.339645 0,-6.380902 -4.49159,-9.26835 -9.33965,-9.26835 -4.91935,0 -9.37529,2.887448 -9.37529,9.26835 z m 9.37529,-5.061945 c 2.10321,0 3.81429,1.318958 3.81429,5.061945 0,3.70734 -1.63979,5.13324 -3.81429,5.13324 -2.21014,0 -3.84993,-1.4259 -3.84993,-5.13324 0,-3.742987 1.71108,-5.061945 3.84993,-5.061945 z M 231.66113,7.9374706 V 31.75 h 10.80119 c 5.77489,0 9.62482,-1.99626 9.62482,-7.343385 0,-2.887447 -1.56849,-4.56288 -3.77863,-5.311477 1.78237,-1.105073 2.81615,-2.780505 2.81615,-4.955003 0,-4.9906494 -3.88558,-6.2026644 -9.05446,-6.2026644 z m 10.83684,13.7599344 c 2.42403,0 3.63604,0.99813 3.63604,2.673563 0,1.675432 -1.21201,2.70921 -3.63604,2.70921 h -5.20454 v -5.382773 z m -0.24954,-9.161407 c 1.88932,0 3.03004,0.891187 3.03004,2.388382 0,1.461548 -1.14072,2.42403 -3.03004,2.42403 h -4.955 v -4.812412 z"
       id="text4"
       style="font-weight:bold;font-size:35.6475px;line-height:20.2122px;font-family:'Atkinson Hyperlegible';-inkscape-font-specification:'Atkinson Hyperlegible Bold';font-variant-numeric:lining-nums;letter-spacing:0px;stroke-width:1.32292;stroke-linecap:square;stroke-miterlimit:3;paint-order:fill markers stroke"
       aria-label="Térreo Bloco B" />
    <path
       d="m 149.38149,87.238701 h 6.83279 c 3.50031,0 5.27444,-2.301571 5.27444,-4.603143 0,-1.534381 -0.79117,-3.068761 -2.3735,-3.907876 1.07887,-0.911039 1.67823,-2.253622 1.67823,-3.524281 0,-2.03785 -1.48643,-3.9798 -4.96276,-3.9798 h -6.4492 z m 2.25363,-7.384208 h 4.79494 c 1.82207,0 2.73311,1.342583 2.73311,2.709141 0,1.390533 -0.93501,2.781065 -2.70914,2.781065 h -4.81891 z m 4.43532,-6.736891 c 1.6063,0 2.44542,1.270659 2.44542,2.517344 0,1.222709 -0.81514,2.445419 -2.44542,2.445419 h -4.43532 v -4.962763 z m 13.0662,14.408795 c 2.22964,0 3.85992,-0.982962 4.72301,-2.373495 l -1.94195,-0.575393 c -0.55142,0.719241 -1.43848,1.17476 -2.78106,1.17476 -1.46246,0 -3.57223,-0.911038 -3.66813,-3.907876 h 9.15833 c 0.23975,-3.404407 -1.75015,-6.688941 -5.53815,-6.688941 -3.26056,0 -5.77791,2.39747 -5.77791,6.161498 0,3.500306 2.0858,6.209447 5.82586,6.209447 z m -0.0479,-10.644767 c 2.10977,0 3.38043,1.678229 3.4044,3.356458 h -7.00061 c 0.1918,-2.39747 1.7981,-3.356458 3.59621,-3.356458 z m 7.91164,-5.658029 v 16.0151 h 1.48643 l 0.52744,-1.798103 c 0.71924,1.270659 1.9899,2.085799 3.85993,2.085799 2.70914,0 5.10661,-2.253622 5.10661,-6.185473 0,-3.907876 -2.39747,-6.185472 -5.10661,-6.185472 -1.87003,0 -3.14069,0.815139 -3.85993,2.061824 v -5.993675 z m 5.34636,5.658029 c 2.03784,0 3.38043,1.63028 3.38043,4.459294 0,2.829015 -1.34259,4.459295 -3.38043,4.459295 -2.03785,0 -3.38044,-1.63028 -3.38044,-4.459295 0,-2.829014 1.34259,-4.459294 3.38044,-4.459294 z m 13.28198,10.644767 c 2.22965,0 3.85992,-0.982962 4.72301,-2.373495 l -1.94195,-0.575393 c -0.55141,0.719241 -1.43848,1.17476 -2.78106,1.17476 -1.46246,0 -3.57223,-0.911038 -3.66813,-3.907876 h 9.15833 c 0.23975,-3.404407 -1.75015,-6.688941 -5.53815,-6.688941 -3.26056,0 -5.7779,2.39747 -5.7779,6.161498 0,3.500306 2.08579,6.209447 5.82585,6.209447 z m -0.0479,-10.644767 c 2.10977,0 3.38043,1.678229 3.40441,3.356458 h -7.00062 c 0.1918,-2.39747 1.79811,-3.356458 3.59621,-3.356458 z m 12.25106,10.644767 c 1.87003,0 3.14069,-0.81514 3.85993,-2.085799 l 0.52744,1.798103 h 1.894 c -0.40757,-2.085799 -0.40757,-3.692104 -0.40757,-4.483269 V 71.223601 h -2.01387 v 5.993675 c -0.71924,-1.246685 -1.9899,-2.061824 -3.85993,-2.061824 -2.70914,0 -5.10661,2.277596 -5.10661,6.185472 0,3.931851 2.39747,6.185473 5.10661,6.185473 z m 0.52745,-10.644767 c 2.03785,0 3.38043,1.63028 3.38043,4.459294 0,2.829015 -1.34258,4.459295 -3.38043,4.459295 -2.03785,0 -3.38044,-1.63028 -3.38044,-4.459295 0,-2.829014 1.34259,-4.459294 3.38044,-4.459294 z m 7.88765,4.459294 c 0,4.291472 2.97287,6.185473 5.70598,6.185473 2.75709,0 5.70598,-1.894001 5.70598,-6.185473 0,-4.291471 -2.94889,-6.185472 -5.70598,-6.185472 -2.73311,0 -5.70598,1.894001 -5.70598,6.185472 z m 2.15773,0 c 0,-3.068761 1.84605,-4.411345 3.54825,-4.411345 1.72618,0 3.54826,1.342584 3.54826,4.411345 0,3.068762 -1.82208,4.411345 -3.54826,4.411345 -1.7022,0 -3.54825,-1.342583 -3.54825,-4.411345 z m 15.60752,6.185473 c 1.96593,0 3.04479,-0.863089 3.71608,-2.013875 l 0.50347,1.726179 h 1.51041 V 75.323275 h -2.01388 v 6.545093 c 0,2.541318 -1.12681,3.883901 -3.02081,3.883901 -2.1817,0 -2.49337,-1.58233 -2.49337,-3.428382 v -7.000612 h -2.01387 v 7.59998 c 0,2.709141 1.03091,4.603142 3.81197,4.603142 z m 9.0864,-12.179148 v 11.891452 h 2.01388 V 82.13209 c 0,-3.164661 1.07886,-4.890839 4.33942,-4.890839 v -2.085799 c -1.9899,0 -3.40441,0.958988 -4.24352,2.39747 l -0.64732,-2.205673 z m 7.38421,5.993675 c 0,4.291472 2.97286,6.185473 5.70598,6.185473 2.75709,0 5.70598,-1.894001 5.70598,-6.185473 0,-4.291471 -2.94889,-6.185472 -5.70598,-6.185472 -2.73312,0 -5.70598,1.894001 -5.70598,6.185472 z m 2.15772,0 c 0,-3.068761 1.84605,-4.411345 3.54826,-4.411345 1.72618,0 3.54825,1.342584 3.54825,4.411345 0,3.068762 -1.82207,4.411345 -3.54825,4.411345 -1.70221,0 -3.54826,-1.342583 -3.54826,-4.411345 z"
       id="text4-8"
       style="font-size:23.9747px;line-height:13.5937px;font-family:'Atkinson Hyperlegible';-inkscape-font-specification:'Atkinson Hyperlegible';font-variant-numeric:lining-nums;letter-spacing:0px;stroke-width:1.32292;stroke-linecap:square;stroke-miterlimit:3;paint-order:fill markers stroke"
       aria-label="Bebedouro" />
    <path
       id="path4"
       style="fill:#4861c1;stroke-width:1.32292;stroke-linecap:square;stroke-miterlimit:3;paint-order:fill markers stroke"
       d="m 140.6768,79.375 a 7.9375,7.9375 0 0 1 -7.9375,7.9375 7.9375,7.9375 0 0 1 -7.9375,-7.9375 7.9375,7.9375 0 0 1 7.9375,-7.9375 7.9375,7.9375 0 0 1 7.9375,7.9375 z" />
    <path
       d="m 316.06899,87.3125 h 10.86054 v -1.941951 h -8.60691 V 71.2974 h -2.25363 z m 11.72364,-11.891452 v 1.606305 h 1.65426 V 87.3125 h 2.01387 V 75.421048 Z m 2.6612,-2.253622 c 0.83911,0 1.5104,-0.671291 1.5104,-1.510406 0,-0.81514 -0.67129,-1.486431 -1.5104,-1.486431 -0.81514,0 -1.48644,0.671291 -1.48644,1.486431 0,0.839115 0.6713,1.510406 1.48644,1.510406 z m 2.92491,14.145074 h 2.37349 l 3.14069,-4.43532 3.16466,4.43532 h 2.37349 l -4.33942,-6.113549 4.12365,-5.777903 h -2.37349 l -2.94889,4.123649 -2.92492,-4.123649 h -2.37349 l 4.12365,5.777903 z m 17.78923,0.287696 c 2.22965,0 3.85993,-0.982962 4.72302,-2.373495 l -1.94195,-0.575393 c -0.55142,0.719241 -1.43848,1.174761 -2.78107,1.174761 -1.46245,0 -3.57223,-0.911039 -3.66812,-3.907877 h 9.15833 c 0.23975,-3.404407 -1.75015,-6.688941 -5.53815,-6.688941 -3.26056,0 -5.77791,2.39747 -5.77791,6.161498 0,3.500306 2.0858,6.209447 5.82585,6.209447 z m -0.0479,-10.644767 c 2.10977,0 3.38043,1.678229 3.4044,3.356458 h -7.00061 c 0.1918,-2.39747 1.7981,-3.356458 3.59621,-3.356458 z m 7.31227,-1.534381 v 1.606305 h 1.65426 V 87.3125 h 2.01387 V 75.421048 Z m 2.66119,-2.253622 c 0.83912,0 1.51041,-0.671291 1.51041,-1.510406 0,-0.81514 -0.67129,-1.486431 -1.51041,-1.486431 -0.81514,0 -1.48643,0.671291 -1.48643,1.486431 0,0.839115 0.67129,1.510406 1.48643,1.510406 z m 4.60314,2.253622 V 87.3125 h 2.01388 v -5.106611 c 0,-3.164661 1.07886,-4.890839 4.33942,-4.890839 v -2.085799 c -1.9899,0 -3.40441,0.958988 -4.24353,2.39747 l -0.64731,-2.205673 z m 11.12428,12.179148 c 2.0858,0 3.33248,-0.719241 4.05172,-1.917976 l 0.4795,1.63028 h 1.84605 c -0.21577,-1.126811 -0.3836,-2.493369 -0.40757,-4.483269 l -0.024,-2.781065 c -0.024,-3.332484 -1.43848,-4.818915 -4.72301,-4.818915 -2.13375,0 -3.90788,1.054887 -4.5552,2.876964 l 1.94196,0.575393 c 0.26372,-1.150786 1.19873,-1.846052 2.63721,-1.846052 1.91798,0 2.75709,1.126811 2.68517,3.140686 -4.86686,0.551418 -8.03153,1.366557 -8.03153,4.195572 0,2.181698 1.84606,3.428382 4.09968,3.428382 z m 4.09967,-6.01765 v 0.743216 c 0,2.80504 -1.7981,3.668129 -3.66813,3.668129 -1.43848,0 -2.30157,-0.743215 -2.30157,-1.870026 0,-1.63028 2.32555,-2.157723 5.9697,-2.541319 z"
       id="text4-8-0"
       style="font-size:23.9747px;line-height:13.5937px;font-family:'Atkinson Hyperlegible';-inkscape-font-specification:'Atkinson Hyperlegible';font-variant-numeric:lining-nums;letter-spacing:0px;stroke-width:1.32292;stroke-linecap:square;stroke-miterlimit:3;paint-order:fill markers stroke"
       aria-label="Lixeira" />
    <path
       style="fill:#6dc500;fill-opacity:1;stroke:none;stroke-width:1.32292;stroke-linecap:square;stroke-miterlimit:3;stroke-opacity:1;paint-order:fill markers stroke"
       d="m 291.48931,87.3125 7.9375,-15.875 7.9375,15.875 z"
       id="path5" />
    <path
       d="m 156.61154,269.87501 v 16.0151 h 10.86054 v -1.94195 h -8.60692 v -5.32239 h 6.35329 v -1.94195 h -6.35329 v -4.86686 h 8.60692 v -1.94195 z m 12.51478,13.32993 c 0.79116,2.03785 2.92491,2.97286 4.98673,2.97286 2.4694,0 4.84289,-1.29463 4.84289,-3.54825 0,-5.05867 -7.55203,-2.68517 -7.55203,-5.56213 0,-1.03092 1.17476,-1.58233 2.39747,-1.58233 1.12681,0 2.30158,0.45552 2.70915,1.4145 l 1.894,-0.69526 c -0.71924,-1.65426 -2.58927,-2.42145 -4.4593,-2.42145 -2.30157,0 -4.57917,1.17476 -4.57917,3.30851 0,4.74699 7.55203,2.34952 7.55203,5.61008 0,1.07886 -1.39053,1.77413 -2.80504,1.77413 -1.3186,0 -2.68516,-0.57539 -3.04478,-1.9899 z m 16.99808,2.97286 c 2.10977,0 3.85992,-1.12681 4.74699,-2.66119 l -1.84606,-0.67129 c -0.52744,0.88706 -1.53438,1.55835 -2.82901,1.55835 -1.77413,0 -3.42838,-1.43848 -3.42838,-4.43531 0,-2.99684 1.63028,-4.38738 3.42838,-4.38738 1.22271,0 2.25362,0.62335 2.78107,1.58234 l 1.84605,-0.6713 c -0.76719,-1.46245 -2.34952,-2.68516 -4.48327,-2.68516 -3.52428,0 -5.75393,2.63721 -5.75393,6.18547 0,3.5962 2.13375,6.18547 5.53816,6.18547 z m 10.54886,0 c 2.0858,0 3.33249,-0.71924 4.05173,-1.91797 l 0.47949,1.63028 h 1.84605 c -0.21577,-1.12681 -0.38359,-2.49337 -0.40757,-4.48327 l -0.024,-2.78107 c -0.024,-3.33248 -1.43848,-4.81891 -4.72302,-4.81891 -2.13374,0 -3.90787,1.05488 -4.55519,2.87696 l 1.94195,0.57539 c 0.26372,-1.15078 1.19874,-1.84605 2.63722,-1.84605 1.91797,0 2.75709,1.12681 2.68517,3.14069 -4.86687,0.55142 -8.03153,1.36656 -8.03153,4.19557 0,2.1817 1.84605,3.42838 4.09967,3.42838 z m 4.09968,-6.01765 v 0.74322 c 0,2.80504 -1.7981,3.66813 -3.66813,3.66813 -1.43848,0 -2.30157,-0.74322 -2.30157,-1.87003 0,-1.63028 2.32554,-2.15772 5.9697,-2.54132 z m 9.51798,6.01765 c 1.87003,0 3.14069,-0.81514 3.85993,-2.0858 l 0.52744,1.79811 h 1.894 c -0.40757,-2.0858 -0.40757,-3.69211 -0.40757,-4.48327 v -11.53183 h -2.01387 v 5.99367 c -0.71924,-1.24668 -1.9899,-2.06182 -3.85993,-2.06182 -2.70914,0 -5.10661,2.27759 -5.10661,6.18547 0,3.93185 2.39747,6.18547 5.10661,6.18547 z m 0.52744,-10.64476 c 2.03785,0 3.38044,1.63028 3.38044,4.45929 0,2.82901 -1.34259,4.45929 -3.38044,4.45929 -2.03785,0 -3.38043,-1.63028 -3.38043,-4.45929 0,-2.82901 1.34258,-4.45929 3.38043,-4.45929 z m 11.98733,10.64476 c 2.0858,0 3.33249,-0.71924 4.05173,-1.91797 l 0.47949,1.63028 h 1.84605 c -0.21577,-1.12681 -0.38359,-2.49337 -0.40757,-4.48327 l -0.024,-2.78107 c -0.024,-3.33248 -1.43848,-4.81891 -4.72302,-4.81891 -2.13375,0 -3.90787,1.05488 -4.55519,2.87696 l 1.94195,0.57539 c 0.26372,-1.15078 1.19873,-1.84605 2.63722,-1.84605 1.91797,0 2.75709,1.12681 2.68516,3.14069 -4.86686,0.55142 -8.03152,1.36656 -8.03152,4.19557 0,2.1817 1.84605,3.42838 4.09967,3.42838 z m 4.09968,-6.01765 v 0.74322 c 0,2.80504 -1.79811,3.66813 -3.66813,3.66813 -1.43849,0 -2.30158,-0.74322 -2.30158,-1.87003 0,-1.63028 2.32555,-2.15772 5.96971,-2.54132 z"
       id="text4-8-1"
       style="font-size:23.9747px;line-height:13.5937px;font-family:'Atkinson Hyperlegible';-inkscape-font-specification:'Atkinson Hyperlegible';font-variant-numeric:lining-nums;letter-spacing:0px;stroke-width:1.32292;stroke-linecap:square;stroke-miterlimit:3;paint-order:fill markers stroke"
       aria-label="Escada" />
    <path
       d="m 275.67404,269.87501 v 16.0151 h 10.86054 v -1.94195 h -8.60692 v -5.32239 h 6.35329 v -1.94195 h -6.35329 v -4.86686 h 8.60692 v -1.94195 z m 13.44979,13.04223 c 0,2.4694 0.52744,2.97287 2.80504,2.97287 h 0.88706 v -1.77413 h -0.45551 c -1.12682,0 -1.22271,-0.31167 -1.22271,-1.53438 v -12.68262 h -2.01388 z m 10.78862,3.26056 c 2.22965,0 3.85993,-0.98296 4.72302,-2.37349 l -1.94195,-0.5754 c -0.55142,0.71925 -1.43848,1.17476 -2.78107,1.17476 -1.46245,0 -3.57223,-0.91103 -3.66812,-3.90787 h 9.15833 c 0.23975,-3.40441 -1.75015,-6.68894 -5.53815,-6.68894 -3.26056,0 -5.77791,2.39747 -5.77791,6.1615 0,3.5003 2.0858,6.20944 5.82585,6.20944 z m -0.0479,-10.64476 c 2.10977,0 3.38043,1.67822 3.4044,3.35645 h -7.00061 c 0.1918,-2.39747 1.7981,-3.35645 3.59621,-3.35645 z m 10.47693,10.35707 h 2.0858 l 4.24352,-11.89146 h -2.1817 l -3.09274,9.25424 -3.11671,-9.25424 h -2.18169 z m 10.88453,0.28769 c 2.0858,0 3.33249,-0.71924 4.05173,-1.91797 l 0.47949,1.63028 h 1.84605 c -0.21577,-1.12681 -0.38359,-2.49337 -0.40757,-4.48327 l -0.024,-2.78107 c -0.024,-3.33248 -1.43848,-4.81891 -4.72302,-4.81891 -2.13375,0 -3.90787,1.05488 -4.55519,2.87696 l 1.94195,0.57539 c 0.26372,-1.15078 1.19873,-1.84605 2.63722,-1.84605 1.91797,0 2.75709,1.12681 2.68516,3.14069 -4.86686,0.55142 -8.03152,1.36656 -8.03152,4.19557 0,2.1817 1.84605,3.42838 4.09967,3.42838 z m 4.09968,-6.01765 v 0.74322 c 0,2.80504 -1.79811,3.66813 -3.66813,3.66813 -1.43849,0 -2.30157,-0.74322 -2.30157,-1.87003 0,-1.63028 2.32554,-2.15772 5.9697,-2.54132 z m 9.51798,6.01765 c 1.87002,0 3.14068,-0.81514 3.85992,-2.0858 l 0.52745,1.79811 h 1.894 c -0.40757,-2.0858 -0.40757,-3.69211 -0.40757,-4.48327 v -11.53183 h -2.01388 v 5.99367 c -0.71924,-1.24668 -1.9899,-2.06182 -3.85992,-2.06182 -2.70914,0 -5.10661,2.27759 -5.10661,6.18547 0,3.93185 2.39747,6.18547 5.10661,6.18547 z m 0.52744,-10.64476 c 2.03785,0 3.38043,1.63028 3.38043,4.45929 0,2.82901 -1.34258,4.45929 -3.38043,4.45929 -2.03785,0 -3.38043,-1.63028 -3.38043,-4.45929 0,-2.82901 1.34258,-4.45929 3.38043,-4.45929 z m 7.88766,4.45929 c 0,4.29147 2.97286,6.18547 5.70597,6.18547 2.75709,0 5.70598,-1.894 5.70598,-6.18547 0,-4.29147 -2.94889,-6.18547 -5.70598,-6.18547 -2.73311,0 -5.70597,1.894 -5.70597,6.18547 z m 2.15772,0 c 0,-3.06876 1.84605,-4.41135 3.54825,-4.41135 1.72618,0 3.54826,1.34259 3.54826,4.41135 0,3.06876 -1.82208,4.41134 -3.54826,4.41134 -1.7022,0 -3.54825,-1.34258 -3.54825,-4.41134 z m 11.84351,-5.99368 v 11.89146 h 2.01387 v -5.10662 c 0,-3.16466 1.07886,-4.89083 4.33942,-4.89083 v -2.0858 c -1.9899,0 -3.40441,0.95898 -4.24352,2.39747 l -0.64732,-2.20568 z m 14.45676,4.98674 v 1.91798 h 4.98674 v 4.98674 h 1.91797 v -4.98674 h 4.98674 v -1.91798 h -4.98674 v -4.98674 h -1.91797 v 4.98674 z"
       id="text4-8-1-5"
       style="font-size:23.9747px;line-height:13.5937px;font-family:'Atkinson Hyperlegible';-inkscape-font-specification:'Atkinson Hyperlegible';font-variant-numeric:lining-nums;letter-spacing:0px;stroke-width:1.32292;stroke-linecap:square;stroke-miterlimit:3;paint-order:fill markers stroke"
       aria-label="Elevador +" />
    <path
       d="m 275.67404,309.5625 h 6.83279 c 3.5003,0 5.27443,-2.30157 5.27443,-4.60314 0,-1.53438 -0.79116,-3.06876 -2.37349,-3.90788 1.07886,-0.91104 1.67822,-2.25362 1.67822,-3.52428 0,-2.03785 -1.48643,-3.9798 -4.96276,-3.9798 h -6.44919 z m 2.25362,-7.38421 h 4.79494 c 1.82208,0 2.73311,1.34259 2.73311,2.70914 0,1.39054 -0.93501,2.78107 -2.70914,2.78107 h -4.81891 z m 4.43532,-6.73689 c 1.6063,0 2.44542,1.27066 2.44542,2.51734 0,1.22271 -0.81514,2.44542 -2.44542,2.44542 h -4.43532 v -4.96276 z m 11.00438,14.4088 c 2.08579,0 3.33248,-0.71924 4.05172,-1.91798 l 0.47949,1.63028 h 1.84606 c -0.21578,-1.12681 -0.3836,-2.49337 -0.40757,-4.48327 l -0.024,-2.78106 c -0.024,-3.33249 -1.43848,-4.81892 -4.72302,-4.81892 -2.13374,0 -3.90787,1.05489 -4.55519,2.87696 l 1.94195,0.5754 c 0.26372,-1.15079 1.19874,-1.84605 2.63722,-1.84605 1.91798,0 2.75709,1.12681 2.68517,3.14068 -4.86687,0.55142 -8.03153,1.36656 -8.03153,4.19557 0,2.1817 1.84605,3.42839 4.09968,3.42839 z m 4.09967,-6.01765 v 0.74321 c 0,2.80504 -1.7981,3.66813 -3.66813,3.66813 -1.43848,0 -2.30157,-0.74321 -2.30157,-1.87003 0,-1.63027 2.32554,-2.15772 5.9697,-2.54131 z m 5.17856,-6.1615 v 11.89145 h 2.01387 v -6.44919 c 0,-2.54132 1.19874,-3.90788 3.14069,-3.90788 2.30157,0 2.61324,1.6063 2.61324,3.42838 v 6.92869 h 2.01387 v -7.52806 c 0,-2.70914 -1.05488,-4.55519 -3.93185,-4.55519 -2.01387,0 -3.16466,0.86309 -3.83595,1.9899 l -0.52744,-1.7981 z m 13.09017,-4.12365 v 16.0151 h 2.01388 v -6.44919 c 0,-2.54132 1.19873,-3.90788 3.14068,-3.90788 2.30157,0 2.61325,1.6063 2.61325,3.42838 v 6.92869 h 2.01387 v -7.52806 c 0,-2.70914 -1.05489,-4.55519 -3.93185,-4.55519 -2.01388,0 -3.16466,0.86309 -3.83595,1.9899 v -5.92175 z m 17.88513,16.3028 c 2.22964,0 3.85992,-0.98297 4.72301,-2.3735 l -1.94195,-0.57539 c -0.55142,0.71924 -1.43848,1.17476 -2.78106,1.17476 -1.46246,0 -3.57223,-0.91104 -3.66813,-3.90788 h 9.15833 c 0.23975,-3.40441 -1.75015,-6.68894 -5.53815,-6.68894 -3.26056,0 -5.77791,2.39747 -5.77791,6.1615 0,3.50031 2.0858,6.20945 5.82586,6.20945 z m -0.0479,-10.64477 c 2.10977,0 3.38043,1.67823 3.4044,3.35646 h -7.00061 c 0.1918,-2.39747 1.7981,-3.35646 3.59621,-3.35646 z m 7.31227,-1.53438 v 1.6063 h 1.65426 v 10.28515 h 2.01387 v -11.89145 z m 2.66119,-2.25362 c 0.83912,0 1.51041,-0.6713 1.51041,-1.51041 0,-0.81514 -0.67129,-1.48643 -1.51041,-1.48643 -0.81514,0 -1.48643,0.67129 -1.48643,1.48643 0,0.83911 0.67129,1.51041 1.48643,1.51041 z m 4.60314,2.25362 v 11.89145 h 2.01388 v -5.10661 c 0,-3.16466 1.07886,-4.89084 4.33942,-4.89084 v -2.0858 c -1.9899,0 -3.40441,0.95899 -4.24352,2.39747 l -0.64732,-2.20567 z m 7.38421,5.99367 c 0,4.29148 2.97286,6.18548 5.70598,6.18548 2.75709,0 5.70598,-1.894 5.70598,-6.18548 0,-4.29147 -2.94889,-6.18547 -5.70598,-6.18547 -2.73312,0 -5.70598,1.894 -5.70598,6.18547 z m 2.15772,0 c 0,-3.06876 1.84605,-4.41134 3.54826,-4.41134 1.72618,0 3.54825,1.34258 3.54825,4.41134 0,3.06877 -1.82207,4.41135 -3.54825,4.41135 -1.70221,0 -3.54826,-1.34258 -3.54826,-4.41135 z m 10.9085,3.21261 c 0.79116,2.03785 2.92491,2.97287 4.98673,2.97287 2.4694,0 4.84289,-1.29464 4.84289,-3.54826 0,-5.05866 -7.55203,-2.68517 -7.55203,-5.56213 0,-1.03091 1.17476,-1.58233 2.39747,-1.58233 1.12681,0 2.30157,0.45552 2.70914,1.41451 l 1.89401,-0.69527 c -0.71925,-1.65425 -2.58927,-2.42144 -4.4593,-2.42144 -2.30157,0 -4.57917,1.17476 -4.57917,3.3085 0,4.747 7.55203,2.34953 7.55203,5.61008 0,1.07887 -1.39053,1.77413 -2.80504,1.77413 -1.3186,0 -2.68516,-0.57539 -3.04478,-1.9899 z"
       id="text4-8-1-5-0"
       style="font-size:23.9747px;line-height:13.5937px;font-family:'Atkinson Hyperlegible';-inkscape-font-specification:'Atkinson Hyperlegible';font-variant-numeric:lining-nums;letter-spacing:0px;stroke-width:1.32292;stroke-linecap:square;stroke-miterlimit:3;paint-order:fill markers stroke"
       aria-label="Banheiros" />
    <path
       id="rect2-7-6-5-4"
       style="stroke-width:1.32292;stroke-linecap:square;stroke-miterlimit:3;paint-order:fill markers stroke"
       d="m 263.44925,269.875 h 4.41739 v 39.6875 h -4.41739 z" />
    <path
       id="rect2-7-6-5-0"
       style="fill:#cc1919;stroke-width:1.32292;stroke-linecap:square;stroke-miterlimit:3;paint-order:fill markers stroke"
       d="m 144.38673,269.875 h 4.4174 v 23.8125 h -4.4174 z" />
    <path
       d="m 3.8820621,123.45203 c 2.1820779,0 3.3492359,-1.56044 3.3492359,-4.40222 0,-2.8164 -1.167158,-4.37684 -3.3492359,-4.37684 -2.1820779,0 -3.3492359,1.56044 -3.3492359,4.37684 0,2.84178 1.167158,4.40222 3.3492359,4.40222 z m -2.1947644,-4.40222 c 0,-0.7485 0.076119,-1.39551 0.25373,-1.91566 l 3.3492358,4.80818 c -0.3425354,0.36791 -0.8119359,0.5709 -1.4082014,0.5709 -1.497007,0 -2.1947644,-1.24328 -2.1947644,-3.46342 z m 2.1947644,-3.43804 c 1.4843204,0 2.1947644,1.23059 2.1947644,3.43804 0,0.72313 -0.076119,1.34477 -0.2156705,1.83954 l -3.3365494,-4.77012 c 0.3425355,-0.32985 0.7992495,-0.50746 1.3574555,-0.50746 z m 4.6432676,0.44403 v 0.84999 h 2.2581973 v 6.394 h 1.065666 v -8.47458 h -0.710444 c -0.367909,1.04029 -1.3955153,1.23059 -2.6134193,1.23059 z m 8.6775713,7.39623 c 2.182078,0 3.349236,-1.56044 3.349236,-4.40222 0,-2.8164 -1.167158,-4.37684 -3.349236,-4.37684 -2.182078,0 -3.349236,1.56044 -3.349236,4.37684 0,2.84178 1.167158,4.40222 3.349236,4.40222 z m -2.194764,-4.40222 c 0,-0.7485 0.07612,-1.39551 0.25373,-1.91566 l 3.349235,4.80818 c -0.342535,0.36791 -0.811935,0.5709 -1.408201,0.5709 -1.497007,0 -2.194764,-1.24328 -2.194764,-3.46342 z m 2.194764,-3.43804 c 1.48432,0 2.194764,1.23059 2.194764,3.43804 0,0.72313 -0.07612,1.34477 -0.21567,1.83954 l -3.336549,-4.77012 c 0.342535,-0.32985 0.799249,-0.50746 1.357455,-0.50746 z"
       id="text6"
       style="font-size:12.6865px;line-height:7.19325px;font-family:'Atkinson Hyperlegible';-inkscape-font-specification:'Atkinson Hyperlegible';font-variant-numeric:lining-nums;text-align:center;letter-spacing:0px;text-anchor:middle;stroke-width:1.32292;stroke-linecap:square;stroke-miterlimit:3;paint-order:fill markers stroke"
       aria-label="010" />
    <path
       d="m 10.455951,234.58171 c 2.1844,0 3.3528,-1.5621 3.3528,-4.4069 0,-2.8194 -1.1684,-4.3815 -3.3528,-4.3815 -2.1844003,0 -3.3528003,1.5621 -3.3528003,4.3815 0,2.8448 1.1684,4.4069 3.3528003,4.4069 z m -2.1971003,-4.4069 c 0,-0.7493 0.0762,-1.397 0.254,-1.9177 l 3.3528003,4.8133 c -0.3429,0.3683 -0.8128,0.5715 -1.4097,0.5715 -1.4986003,0 -2.1971003,-1.2446 -2.1971003,-3.4671 z m 2.1971003,-3.4417 c 1.4859,0 2.1971,1.2319 2.1971,3.4417 0,0.7239 -0.0762,1.3462 -0.2159,1.8415 l -3.3401003,-4.7752 c 0.3429,-0.3302 0.8001,-0.508 1.3589003,-0.508 z m 10.41402,7.6962 v -0.9779 h -4.6736 c 2.3749,-1.7145 4.445,-3.4671 4.445,-5.4356 0,-1.4224 -1.1303,-2.2225 -2.6924,-2.2225 -1.4986,0 -2.5654,0.7747 -2.8702,2.0066 l 1.0668,0.3048 c 0.2032,-1.0287 0.9779,-1.4224 1.778,-1.4224 1.0033,0 1.5875,0.5969 1.5875,1.4732 0,1.4986 -1.7526,3.1115 -4.7498,5.3213 v 0.9525 z m 0.812805,-2.0955 h 4.2164 v 2.0955 h 1.0668 v -2.0955 h 1.5494 v -1.0033 h -1.5494 v -5.3848 h -1.0795 l -4.2037,5.3848 z m 1.1557,-1.0033 3.0607,-3.9243 v 3.9243 z"
       id="text6-4"
       style="font-size:12.7px;line-height:7.20093px;font-family:'Atkinson Hyperlegible';-inkscape-font-specification:'Atkinson Hyperlegible';font-variant-numeric:lining-nums;text-align:center;letter-spacing:0px;text-anchor:middle;stroke-width:1.32292;stroke-linecap:square;stroke-miterlimit:3;paint-order:fill markers stroke"
       aria-label="024" />
    <path
       d="m 43.158888,234.58171 c 2.1844,0 3.3528,-1.5621 3.3528,-4.4069 0,-2.8194 -1.1684,-4.3815 -3.3528,-4.3815 -2.1844,0 -3.3528,1.5621 -3.3528,4.3815 0,2.8448 1.1684,4.4069 3.3528,4.4069 z m -2.1971,-4.4069 c 0,-0.7493 0.0762,-1.397 0.254,-1.9177 l 3.3528,4.8133 c -0.3429,0.3683 -0.8128,0.5715 -1.4097,0.5715 -1.4986,0 -2.1971,-1.2446 -2.1971,-3.4671 z m 2.1971,-3.4417 c 1.4859,0 2.1971,1.2319 2.1971,3.4417 0,0.7239 -0.0762,1.3462 -0.2159,1.8415 l -3.3401,-4.7752 c 0.3429,-0.3302 0.8001,-0.508 1.3589,-0.508 z m 7.962908,7.8486 c 1.8161,0 2.9845,-1.3462 2.9845,-2.921 0,-1.7018 -1.1557,-2.8829 -2.7305,-2.8829 -1.1303,0 -1.8542,0.5207 -2.2352,1.1811 0.0508,-1.9685 0.762,-3.2766 2.0828,-3.2766 0.6731,0 1.1811,0.2921 1.4351,0.7874 l 1.0795,-0.3175 c -0.3683,-0.762 -1.1303,-1.3589 -2.3876,-1.3589 -2.4638,0 -3.3147,2.2987 -3.3147,4.699 0,2.6162 0.9652,4.0894 3.0861,4.0894 z m -1.8542,-2.8829 c 0,-1.1684 0.7239,-1.9812 1.8542,-1.9812 1.1176,0 1.8415,0.8128 1.8415,1.9812 0,1.1684 -0.7239,1.9812 -1.8415,1.9812 -1.1303,0 -1.8542,-0.8128 -1.8542,-1.9812 z m 9.397995,0.1778 c 0.2413,0 0.4572,-0.0254 0.6731,-0.0762 -0.6985,1.1557 -1.7653,2.6289 -1.7653,2.6289 h 1.3208 c 1.2954,-1.905 2.413,-4.0005 2.5781,-4.4196 0.1524,-0.381 0.2286,-0.7747 0.2286,-1.1557 0,-1.7145 -1.3462,-3.048 -3.0353,-3.048 -1.6891,0 -3.0353,1.3589 -3.0353,3.0226 0,1.6891 1.3716,3.048 3.0353,3.048 z m 0,-4.9911 c 1.0922,0 1.9685,0.8763 1.9685,1.9431 0,1.0795 -0.8763,1.9558 -1.9685,1.9558 -1.0795,0 -1.9431,-0.8763 -1.9431,-1.9558 0,-1.0668 0.8636,-1.9431 1.9431,-1.9431 z"
       id="text6-4-5"
       style="font-size:12.7px;line-height:7.20093px;font-family:'Atkinson Hyperlegible';-inkscape-font-specification:'Atkinson Hyperlegible';font-variant-numeric:lining-nums;text-align:center;letter-spacing:0px;text-anchor:middle;stroke-width:1.32292;stroke-linecap:square;stroke-miterlimit:3;paint-order:fill markers stroke"
       aria-label="069" />
    <path
       d="m 78.727568,243.05261 v 0.8509 h 2.2606 v 6.4008 h 1.0668 v -8.4836 h -0.7112 c -0.3683,1.0414 -1.397,1.2319 -2.6162,1.2319 z m 11.112506,7.2517 v -0.9779 h -4.6736 c 2.3749,-1.7145 4.445,-3.4671 4.445,-5.4356 0,-1.4224 -1.1303,-2.2225 -2.6924,-2.2225 -1.4986,0 -2.5654,0.7747 -2.8702,2.0066 l 1.0668,0.3048 c 0.2032,-1.0287 0.9779,-1.4224 1.778,-1.4224 1.0033,0 1.5875,0.5969 1.5875,1.4732 0,1.4986 -1.7526,3.1115 -4.7498,5.3213 v 0.9525 z m 4.546597,0.1524 c 2.1844,0 3.3528,-1.5621 3.3528,-4.4069 0,-2.8194 -1.1684,-4.3815 -3.3528,-4.3815 -2.1844,0 -3.3528,1.5621 -3.3528,4.3815 0,2.8448 1.1684,4.4069 3.3528,4.4069 z m -2.1971,-4.4069 c 0,-0.7493 0.0762,-1.397 0.254,-1.9177 l 3.3528,4.8133 c -0.3429,0.3683 -0.8128,0.5715 -1.4097,0.5715 -1.4986,0 -2.1971,-1.2446 -2.1971,-3.4671 z m 2.1971,-3.4417 c 1.4859,0 2.1971,1.2319 2.1971,3.4417 0,0.7239 -0.0762,1.3462 -0.2159,1.8415 l -3.3401,-4.7752 c 0.3429,-0.3302 0.8001,-0.508 1.3589,-0.508 z"
       id="text6-4-5-8"
       style="font-size:12.7px;line-height:7.20093px;font-family:'Atkinson Hyperlegible';-inkscape-font-specification:'Atkinson Hyperlegible';font-variant-numeric:lining-nums;text-align:center;letter-spacing:0px;text-anchor:middle;stroke-width:1.32292;stroke-linecap:square;stroke-miterlimit:3;paint-order:fill markers stroke"
       aria-label="120" />
    <path
       d="m 111.95961,227.17761 v 0.8509 h 2.2606 v 6.4008 h 1.0668 v -8.4836 h -0.7112 c -0.3683,1.0414 -1.397,1.2319 -2.6162,1.2319 z m 8.4201,7.4041 c 1.8161,0 2.9845,-1.3462 2.9845,-2.921 0,-1.7018 -1.1557,-2.8829 -2.7305,-2.8829 -1.1303,0 -1.8542,0.5207 -2.2352,1.1811 0.0508,-1.9685 0.762,-3.2766 2.0828,-3.2766 0.6731,0 1.1811,0.2921 1.4351,0.7874 l 1.0795,-0.3175 c -0.3683,-0.762 -1.1303,-1.3589 -2.3876,-1.3589 -2.4638,0 -3.3147,2.2987 -3.3147,4.699 0,2.6162 0.9652,4.0894 3.0861,4.0894 z m -1.8542,-2.8829 c 0,-1.1684 0.7239,-1.9812 1.8542,-1.9812 1.1176,0 1.8415,0.8128 1.8415,1.9812 0,1.1684 -0.7239,1.9812 -1.8415,1.9812 -1.1303,0 -1.8542,-0.8128 -1.8542,-1.9812 z m 6.2865,0.8128 c 0.3175,1.143 1.20649,2.0701 2.92099,2.0701 1.5748,0 3.0099,-1.0033 3.0099,-2.9464 0,-1.8669 -1.2954,-2.921 -2.7813,-2.921 -0.6985,0 -1.3843,0.2032 -1.8288,0.635 l 0.2921,-2.3749 h 4.0005 v -1.0287 h -4.86409 l -0.5207,4.318 1.04139,0.3048 c 0.1778,-0.4191 0.762,-0.9398 1.6383,-0.9398 0.9144,0 1.905,0.6096 1.905,2.0193 0,1.3081 -0.8763,2.0447 -1.8923,2.0447 -1.1049,0 -1.6764,-0.5588 -1.8796,-1.4859 z"
       id="text6-4-5-8-6"
       style="font-size:12.7px;line-height:7.20093px;font-family:'Atkinson Hyperlegible';-inkscape-font-specification:'Atkinson Hyperlegible';font-variant-numeric:lining-nums;text-align:center;letter-spacing:0px;text-anchor:middle;stroke-width:1.32292;stroke-linecap:square;stroke-miterlimit:3;paint-order:fill markers stroke"
       aria-label="165" />
    <path
       d="m 157.83119,234.42931 v -0.9779 h -4.6736 c 2.3749,-1.7145 4.445,-3.4671 4.445,-5.4356 0,-1.4224 -1.1303,-2.2225 -2.6924,-2.2225 -1.4986,0 -2.5654,0.7747 -2.8702,2.0066 l 1.0668,0.3048 c 0.2032,-1.0287 0.9779,-1.4224 1.778,-1.4224 1.0033,0 1.5875,0.5969 1.5875,1.4732 0,1.4986 -1.7526,3.1115 -4.7498,5.3213 v 0.9525 z m 0.96519,-7.2517 v 0.8509 h 2.2606 v 6.4008 h 1.0668 v -8.4836 h -0.7112 c -0.3683,1.0414 -1.397,1.2319 -2.6162,1.2319 z m 5.33401,4.8641 c 0,1.6256 1.3716,2.54 3.1369,2.54 1.778,0 3.1496,-0.9144 3.1496,-2.54 0,-1.0922 -0.6223,-1.8796 -1.5621,-2.2606 0.4445,-0.4191 0.7239,-1.016 0.7239,-1.6891 0,-1.27 -1.0287,-2.2987 -2.3114,-2.2987 -1.27,0 -2.2987,1.0287 -2.2987,2.2987 0,0.6731 0.2794,1.27 0.7239,1.6891 -0.9398,0.381 -1.5621,1.1684 -1.5621,2.2606 z m 1.1557,0 c 0,-0.9906 0.7747,-1.6383 1.9812,-1.6383 1.2192,0 1.9939,0.6477 1.9939,1.6383 0,0.9906 -0.7747,1.6002 -1.9939,1.6002 -1.2065,0 -1.9812,-0.6096 -1.9812,-1.6002 z m 0.6223,-3.9624 c 0,-0.7493 0.6096,-1.3462 1.3589,-1.3462 0.7493,0 1.3589,0.5969 1.3589,1.3462 0,0.7747 -0.6096,1.3843 -1.3589,1.3843 -0.7493,0 -1.3589,-0.6096 -1.3589,-1.3843 z"
       id="text6-4-5-8-6-2"
       style="font-size:12.7px;line-height:7.20093px;font-family:'Atkinson Hyperlegible';-inkscape-font-specification:'Atkinson Hyperlegible';font-variant-numeric:lining-nums;text-align:center;letter-spacing:0px;text-anchor:middle;stroke-width:1.32292;stroke-linecap:square;stroke-miterlimit:3;paint-order:fill markers stroke"
       aria-label="218" />
    <path
       d="m 185.94705,234.42931 v -0.9779 h -4.6736 c 2.3749,-1.7145 4.445,-3.4671 4.445,-5.4356 0,-1.4224 -1.1303,-2.2225 -2.6924,-2.2225 -1.4986,0 -2.5654,0.7747 -2.8702,2.0066 l 1.0668,0.3048 c 0.2032,-1.0287 0.9779,-1.4224 1.778,-1.4224 1.0033,0 1.5875,0.5969 1.5875,1.4732 0,1.4986 -1.7526,3.1115 -4.7498,5.3213 v 0.9525 z m 1.1176,-1.9177 c 0.3175,1.143 1.2065,2.0701 2.921,2.0701 1.5748,0 3.0099,-1.0033 3.0099,-2.9464 0,-1.8669 -1.2954,-2.921 -2.7813,-2.921 -0.6985,0 -1.3843,0.2032 -1.8288,0.635 l 0.2921,-2.3749 h 4.0005 v -1.0287 h -4.8641 l -0.5207,4.318 1.0414,0.3048 c 0.1778,-0.4191 0.762,-0.9398 1.6383,-0.9398 0.9144,0 1.905,0.6096 1.905,2.0193 0,1.3081 -0.8763,2.0447 -1.8923,2.0447 -1.1049,0 -1.6764,-0.5588 -1.8796,-1.4859 z m 7.4803,-0.4699 c 0,1.6256 1.3716,2.54 3.1369,2.54 1.778,0 3.1496,-0.9144 3.1496,-2.54 0,-1.0922 -0.6223,-1.8796 -1.5621,-2.2606 0.4445,-0.4191 0.7239,-1.016 0.7239,-1.6891 0,-1.27 -1.0287,-2.2987 -2.3114,-2.2987 -1.27,0 -2.2987,1.0287 -2.2987,2.2987 0,0.6731 0.2794,1.27 0.7239,1.6891 -0.9398,0.381 -1.5621,1.1684 -1.5621,2.2606 z m 1.1557,0 c 0,-0.9906 0.7747,-1.6383 1.9812,-1.6383 1.2192,0 1.9939,0.6477 1.9939,1.6383 0,0.9906 -0.7747,1.6002 -1.9939,1.6002 -1.2065,0 -1.9812,-0.6096 -1.9812,-1.6002 z m 0.6223,-3.9624 c 0,-0.7493 0.6096,-1.3462 1.3589,-1.3462 0.7493,0 1.3589,0.5969 1.3589,1.3462 0,0.7747 -0.6096,1.3843 -1.3589,1.3843 -0.7493,0 -1.3589,-0.6096 -1.3589,-1.3843 z"
       id="text6-4-5-8-6-2-2"
       style="font-size:12.7px;line-height:7.20093px;font-family:'Atkinson Hyperlegible';-inkscape-font-specification:'Atkinson Hyperlegible';font-variant-numeric:lining-nums;text-align:center;letter-spacing:0px;text-anchor:middle;stroke-width:1.32292;stroke-linecap:square;stroke-miterlimit:3;paint-order:fill markers stroke"
       aria-label="258" />
    <path
       d="m 214.28027,232.51161 c 0.2921,1.1557 1.2065,2.0701 2.921,2.0701 1.6129,0 3.0734,-0.8255 3.0734,-2.54 0,-0.889 -0.3556,-1.7272 -1.6256,-2.1209 0.889,-0.3683 1.3843,-1.1049 1.3843,-1.9685 0,-1.5748 -1.27,-2.159 -2.7432,-2.159 -1.5621,0 -2.5781,0.8001 -2.8829,2.0066 l 1.0414,0.3048 c 0.1651,-0.8382 0.7747,-1.4224 1.8161,-1.4224 0.9017,0 1.651,0.4699 1.651,1.3843 0,1.3335 -1.4478,1.4097 -2.4003,1.4097 v 0.9652 c 0.6731,0 2.6162,-0.0127 2.6162,1.6129 0,1.0541 -0.8001,1.6383 -1.9177,1.6383 -1.0795,0 -1.6891,-0.5969 -1.8796,-1.4859 z m 10.87119,2.0701 c 2.1844,0 3.3528,-1.5621 3.3528,-4.4069 0,-2.8194 -1.1684,-4.3815 -3.3528,-4.3815 -2.1844,0 -3.3528,1.5621 -3.3528,4.3815 0,2.8448 1.1684,4.4069 3.3528,4.4069 z m -2.1971,-4.4069 c 0,-0.7493 0.0762,-1.397 0.254,-1.9177 l 3.3528,4.8133 c -0.3429,0.3683 -0.8128,0.5715 -1.4097,0.5715 -1.4986,0 -2.1971,-1.2446 -2.1971,-3.4671 z m 2.1971,-3.4417 c 1.4859,0 2.1971,1.2319 2.1971,3.4417 0,0.7239 -0.0762,1.3462 -0.2159,1.8415 l -3.3401,-4.7752 c 0.3429,-0.3302 0.8001,-0.508 1.3589,-0.508 z m 7.96291,7.8486 c 1.8161,0 2.9845,-1.3462 2.9845,-2.921 0,-1.7018 -1.1557,-2.8829 -2.7305,-2.8829 -1.1303,0 -1.8542,0.5207 -2.2352,1.1811 0.0508,-1.9685 0.762,-3.2766 2.0828,-3.2766 0.6731,0 1.1811,0.2921 1.4351,0.7874 l 1.0795,-0.3175 c -0.3683,-0.762 -1.1303,-1.3589 -2.3876,-1.3589 -2.4638,0 -3.3147,2.2987 -3.3147,4.699 0,2.6162 0.9652,4.0894 3.0861,4.0894 z m -1.8542,-2.8829 c 0,-1.1684 0.7239,-1.9812 1.8542,-1.9812 1.1176,0 1.8415,0.8128 1.8415,1.9812 0,1.1684 -0.7239,1.9812 -1.8415,1.9812 -1.1303,0 -1.8542,-0.8128 -1.8542,-1.9812 z"
       id="text6-4-5-8-6-2-2-6"
       style="font-size:12.7px;line-height:7.20093px;font-family:'Atkinson Hyperlegible';-inkscape-font-specification:'Atkinson Hyperlegible';font-variant-numeric:lining-nums;text-align:center;letter-spacing:0px;text-anchor:middle;stroke-width:1.32292;stroke-linecap:square;stroke-miterlimit:3;paint-order:fill markers stroke"
       aria-label="306" />
    <path
       d="m 243.4082,248.38661 c 0.2921,1.1557 1.2065,2.0701 2.92099,2.0701 1.6129,0 3.0734,-0.8255 3.0734,-2.54 0,-0.889 -0.3556,-1.7272 -1.6256,-2.1209 0.889,-0.3683 1.3843,-1.1049 1.3843,-1.9685 0,-1.5748 -1.27,-2.159 -2.7432,-2.159 -1.56209,0 -2.57809,0.8001 -2.88289,2.0066 l 1.0414,0.3048 c 0.1651,-0.8382 0.77469,-1.4224 1.81609,-1.4224 0.9017,0 1.651,0.4699 1.651,1.3843 0,1.3335 -1.4478,1.4097 -2.4003,1.4097 v 0.9652 c 0.6731,0 2.6162,-0.0127 2.6162,1.6129 0,1.0541 -0.8001,1.6383 -1.9177,1.6383 -1.0795,0 -1.68909,-0.5969 -1.87959,-1.4859 z m 7.23899,-0.1778 h 4.2164 v 2.0955 h 1.0668 v -2.0955 h 1.5494 v -1.0033 h -1.5494 v -5.3848 h -1.0795 l -4.2037,5.3848 z m 1.1557,-1.0033 3.0607,-3.9243 v 3.9243 z m 6.60401,1.1811 c 0.3175,1.143 1.2065,2.0701 2.921,2.0701 1.5748,0 3.0099,-1.0033 3.0099,-2.9464 0,-1.8669 -1.2954,-2.921 -2.7813,-2.921 -0.6985,0 -1.3843,0.2032 -1.8288,0.635 l 0.2921,-2.3749 h 4.0005 v -1.0287 h -4.8641 l -0.5207,4.318 1.0414,0.3048 c 0.1778,-0.4191 0.762,-0.9398 1.6383,-0.9398 0.9144,0 1.905,0.6096 1.905,2.0193 0,1.3081 -0.8763,2.0447 -1.8923,2.0447 -1.1049,0 -1.6764,-0.5588 -1.8796,-1.4859 z"
       id="text6-4-5-8-6-2-2-6-9"
       style="font-size:12.7px;line-height:7.20093px;font-family:'Atkinson Hyperlegible';-inkscape-font-specification:'Atkinson Hyperlegible';font-variant-numeric:lining-nums;text-align:center;letter-spacing:0px;text-anchor:middle;stroke-width:1.32292;stroke-linecap:square;stroke-miterlimit:3;paint-order:fill markers stroke"
       aria-label="345" />
    <path
       d="m 271.7974,232.51161 c 0.2921,1.1557 1.2065,2.0701 2.921,2.0701 1.6129,0 3.0734,-0.8255 3.0734,-2.54 0,-0.889 -0.3556,-1.7272 -1.6256,-2.1209 0.889,-0.3683 1.3843,-1.1049 1.3843,-1.9685 0,-1.5748 -1.27,-2.159 -2.7432,-2.159 -1.5621,0 -2.5781,0.8001 -2.8829,2.0066 l 1.0414,0.3048 c 0.1651,-0.8382 0.7747,-1.4224 1.8161,-1.4224 0.9017,0 1.651,0.4699 1.651,1.3843 0,1.3335 -1.4478,1.4097 -2.4003,1.4097 v 0.9652 c 0.6731,0 2.6162,-0.0127 2.6162,1.6129 0,1.0541 -0.8001,1.6383 -1.9177,1.6383 -1.0795,0 -1.6891,-0.5969 -1.8796,-1.4859 z m 7.51839,-0.4699 c 0,1.6256 1.3716,2.54 3.1369,2.54 1.778,0 3.1496,-0.9144 3.1496,-2.54 0,-1.0922 -0.6223,-1.8796 -1.5621,-2.2606 0.4445,-0.4191 0.7239,-1.016 0.7239,-1.6891 0,-1.27 -1.0287,-2.2987 -2.3114,-2.2987 -1.27,0 -2.2987,1.0287 -2.2987,2.2987 0,0.6731 0.2794,1.27 0.7239,1.6891 -0.9398,0.381 -1.5621,1.1684 -1.5621,2.2606 z m 1.1557,0 c 0,-0.9906 0.7747,-1.6383 1.9812,-1.6383 1.2192,0 1.9939,0.6477 1.9939,1.6383 0,0.9906 -0.7747,1.6002 -1.9939,1.6002 -1.2065,0 -1.9812,-0.6096 -1.9812,-1.6002 z m 0.6223,-3.9624 c 0,-0.7493 0.6096,-1.3462 1.3589,-1.3462 0.7493,0 1.3589,0.5969 1.3589,1.3462 0,0.7747 -0.6096,1.3843 -1.3589,1.3843 -0.7493,0 -1.3589,-0.6096 -1.3589,-1.3843 z m 5.7531,4.2545 h 4.2164 v 2.0955 h 1.0668 v -2.0955 h 1.5494 v -1.0033 h -1.5494 v -5.3848 h -1.0795 l -4.2037,5.3848 z m 1.1557,-1.0033 3.0607,-3.9243 v 3.9243 z"
       id="text6-4-5-8-6-2-2-6-9-5"
       style="font-size:12.7px;line-height:7.20093px;font-family:'Atkinson Hyperlegible';-inkscape-font-specification:'Atkinson Hyperlegible';font-variant-numeric:lining-nums;text-align:center;letter-spacing:0px;text-anchor:middle;stroke-width:1.32292;stroke-linecap:square;stroke-miterlimit:3;paint-order:fill markers stroke"
       aria-label="384" />
    <path
       d="m 307.50484,232.33381 h 4.2164 v 2.0955 h 1.0668 v -2.0955 h 1.5494 v -1.0033 h -1.5494 v -5.3848 h -1.0795 l -4.2037,5.3848 z m 1.1557,-1.0033 3.0607,-3.9243 v 3.9243 z m 6.6929,1.1811 c 0.2921,1.1557 1.2065,2.0701 2.921,2.0701 1.6129,0 3.0734,-0.8255 3.0734,-2.54 0,-0.889 -0.3556,-1.7272 -1.6256,-2.1209 0.889,-0.3683 1.3843,-1.1049 1.3843,-1.9685 0,-1.5748 -1.27,-2.159 -2.7432,-2.159 -1.5621,0 -2.5781,0.8001 -2.8829,2.0066 l 1.0414,0.3048 c 0.1651,-0.8382 0.7747,-1.4224 1.8161,-1.4224 0.9017,0 1.651,0.4699 1.651,1.3843 0,1.3335 -1.4478,1.4097 -2.4003,1.4097 v 0.9652 c 0.6731,0 2.6162,-0.0127 2.6162,1.6129 0,1.0541 -0.8001,1.6383 -1.9177,1.6383 -1.0795,0 -1.6891,-0.5969 -1.8796,-1.4859 z m 13.2969,1.9177 v -0.9779 h -4.6736 c 2.3749,-1.7145 4.445,-3.4671 4.445,-5.4356 0,-1.4224 -1.1303,-2.2225 -2.6924,-2.2225 -1.4986,0 -2.5654,0.7747 -2.8702,2.0066 l 1.0668,0.3048 c 0.2032,-1.0287 0.9779,-1.4224 1.778,-1.4224 1.0033,0 1.5875,0.5969 1.5875,1.4732 0,1.4986 -1.7526,3.1115 -4.7498,5.3213 v 0.9525 z"
       id="text6-4-5-8-6-2-2-6-9-5-3"
       style="font-size:12.7px;line-height:7.20093px;font-family:'Atkinson Hyperlegible';-inkscape-font-specification:'Atkinson Hyperlegible';font-variant-numeric:lining-nums;text-align:center;letter-spacing:0px;text-anchor:middle;stroke-width:1.32292;stroke-linecap:square;stroke-miterlimit:3;paint-order:fill markers stroke"
       aria-label="432" />
    <path
       d="m 337.37989,232.33381 h 4.2164 v 2.0955 h 1.0668 v -2.0955 h 1.5494 v -1.0033 h -1.5494 v -5.3848 h -1.0795 l -4.2037,5.3848 z m 1.1557,-1.0033 3.0607,-3.9243 v 3.9243 z m 7.34061,3.0988 h 1.3335 l 3.5306,-7.4549 v -1.0287 h -5.8547 v 1.0287 h 4.6736 z m 6.1849,-7.2517 v 0.8509 h 2.2606 v 6.4008 h 1.0668 v -8.4836 h -0.7112 c -0.3683,1.0414 -1.397,1.2319 -2.6162,1.2319 z"
       id="text6-4-5-8-6-2-2-6-9-5-3-3"
       style="font-size:12.7px;line-height:7.20093px;font-family:'Atkinson Hyperlegible';-inkscape-font-specification:'Atkinson Hyperlegible';font-variant-numeric:lining-nums;text-align:center;letter-spacing:0px;text-anchor:middle;stroke-width:1.32292;stroke-linecap:square;stroke-miterlimit:3;paint-order:fill markers stroke"
       aria-label="471" />
    <path
       d="m 376.63445,232.51161 c 0.3175,1.143 1.2065,2.0701 2.921,2.0701 1.5748,0 3.0099,-1.0033 3.0099,-2.9464 0,-1.8669 -1.2954,-2.921 -2.7813,-2.921 -0.6985,0 -1.3843,0.2032 -1.8288,0.635 l 0.2921,-2.3749 h 4.0005 v -1.0287 h -4.8641 l -0.5207,4.318 1.0414,0.3048 c 0.1778,-0.4191 0.762,-0.9398 1.6383,-0.9398 0.9144,0 1.905,0.6096 1.905,2.0193 0,1.3081 -0.8763,2.0447 -1.8923,2.0447 -1.1049,0 -1.6764,-0.5588 -1.8796,-1.4859 z m 13.2588,1.9177 v -0.9779 h -4.6736 c 2.3749,-1.7145 4.445,-3.4671 4.445,-5.4356 0,-1.4224 -1.1303,-2.2225 -2.6924,-2.2225 -1.4986,0 -2.5654,0.7747 -2.8702,2.0066 l 1.0668,0.3048 c 0.2032,-1.0287 0.9779,-1.4224 1.778,-1.4224 1.0033,0 1.5875,0.5969 1.5875,1.4732 0,1.4986 -1.7526,3.1115 -4.7498,5.3213 v 0.9525 z m 1.1176,-1.9177 c 0.3175,1.143 1.2065,2.0701 2.921,2.0701 1.5748,0 3.0099,-1.0033 3.0099,-2.9464 0,-1.8669 -1.2954,-2.921 -2.7813,-2.921 -0.6985,0 -1.3843,0.2032 -1.8288,0.635 l 0.2921,-2.3749 h 4.0005 v -1.0287 h -4.8641 l -0.5207,4.318 1.0414,0.3048 c 0.1778,-0.4191 0.762,-0.9398 1.6383,-0.9398 0.9144,0 1.905,0.6096 1.905,2.0193 0,1.3081 -0.8763,2.0447 -1.8923,2.0447 -1.1049,0 -1.6764,-0.5588 -1.8796,-1.4859 z"
       id="text6-4-5-8-6-2-2-6-9-5-3-3-4"
       style="font-size:12.7px;line-height:7.20093px;font-family:'Atkinson Hyperlegible';-inkscape-font-specification:'Atkinson Hyperlegible';font-variant-numeric:lining-nums;text-align:center;letter-spacing:0px;text-anchor:middle;stroke-width:1.32292;stroke-linecap:square;stroke-miterlimit:3;paint-order:fill markers stroke"
       aria-label="525" />
    <path
       d="m 409.30799,248.38661 c 0.3175,1.143 1.2065,2.0701 2.921,2.0701 1.5748,0 3.0099,-1.0033 3.0099,-2.9464 0,-1.8669 -1.2954,-2.921 -2.7813,-2.921 -0.6985,0 -1.3843,0.2032 -1.8288,0.635 l 0.2921,-2.3749 h 4.0005 v -1.0287 h -4.8641 l -0.5207,4.318 1.0414,0.3048 c 0.1778,-0.4191 0.762,-0.9398 1.6383,-0.9398 0.9144,0 1.905,0.6096 1.905,2.0193 0,1.3081 -0.8763,2.0447 -1.8923,2.0447 -1.1049,0 -1.6764,-0.5588 -1.8796,-1.4859 z m 7.89941,1.9177 h 1.3335 l 3.5306,-7.4549 v -1.0287 h -5.8547 v 1.0287 h 4.6736 z m 9.4107,0.1524 c 2.1844,0 3.3528,-1.5621 3.3528,-4.4069 0,-2.8194 -1.1684,-4.3815 -3.3528,-4.3815 -2.1844,0 -3.3528,1.5621 -3.3528,4.3815 0,2.8448 1.1684,4.4069 3.3528,4.4069 z m -2.1971,-4.4069 c 0,-0.7493 0.0762,-1.397 0.254,-1.9177 l 3.3528,4.8133 c -0.3429,0.3683 -0.8128,0.5715 -1.4097,0.5715 -1.4986,0 -2.1971,-1.2446 -2.1971,-3.4671 z m 2.1971,-3.4417 c 1.4859,0 2.1971,1.2319 2.1971,3.4417 0,0.7239 -0.0762,1.3462 -0.2159,1.8415 l -3.3401,-4.7752 c 0.3429,-0.3302 0.8001,-0.508 1.3589,-0.508 z"
       id="text6-4-5-8-6-2-2-6-9-5-3-3-4-1"
       style="font-size:12.7px;line-height:7.20093px;font-family:'Atkinson Hyperlegible';-inkscape-font-specification:'Atkinson Hyperlegible';font-variant-numeric:lining-nums;text-align:center;letter-spacing:0px;text-anchor:middle;stroke-width:1.32292;stroke-linecap:square;stroke-miterlimit:3;paint-order:fill markers stroke"
       aria-label="570" />
    <path
       d="m 451.63104,234.58171 c 1.8161,0 2.9845,-1.3462 2.9845,-2.921 0,-1.7018 -1.1557,-2.8829 -2.7305,-2.8829 -1.1303,0 -1.8542,0.5207 -2.2352,1.1811 0.0508,-1.9685 0.762,-3.2766 2.0828,-3.2766 0.6731,0 1.1811,0.2921 1.4351,0.7874 l 1.0795,-0.3175 c -0.3683,-0.762 -1.1303,-1.3589 -2.3876,-1.3589 -2.4638,0 -3.3147,2.2987 -3.3147,4.699 0,2.6162 0.9652,4.0894 3.0861,4.0894 z m -1.8542,-2.8829 c 0,-1.1684 0.7239,-1.9812 1.8542,-1.9812 1.1176,0 1.8415,0.8128 1.8415,1.9812 0,1.1684 -0.7239,1.9812 -1.8415,1.9812 -1.1303,0 -1.8542,-0.8128 -1.8542,-1.9812 z m 11.89991,2.7305 v -0.9779 h -4.6736 c 2.3749,-1.7145 4.445,-3.4671 4.445,-5.4356 0,-1.4224 -1.1303,-2.2225 -2.6924,-2.2225 -1.4986,0 -2.5654,0.7747 -2.8702,2.0066 l 1.0668,0.3048 c 0.2032,-1.0287 0.9779,-1.4224 1.778,-1.4224 1.0033,0 1.5875,0.5969 1.5875,1.4732 0,1.4986 -1.7526,3.1115 -4.7498,5.3213 v 0.9525 z m 0.96519,-7.2517 v 0.8509 h 2.2606 v 6.4008 h 1.0668 v -8.4836 h -0.7112 c -0.3683,1.0414 -1.397,1.2319 -2.6162,1.2319 z"
       id="text6-4-5-8-6-2-2-6-9-5-3-3-4-1-2"
       style="font-size:12.7px;line-height:7.20093px;font-family:'Atkinson Hyperlegible';-inkscape-font-specification:'Atkinson Hyperlegible';font-variant-numeric:lining-nums;text-align:center;letter-spacing:0px;text-anchor:middle;stroke-width:1.32292;stroke-linecap:square;stroke-miterlimit:3;paint-order:fill markers stroke"
       aria-label="621" />
    <path
       d="m 482.78665,234.58171 c 1.8161,0 2.9845,-1.3462 2.9845,-2.921 0,-1.7018 -1.1557,-2.8829 -2.7305,-2.8829 -1.1303,0 -1.8542,0.5207 -2.2352,1.1811 0.0508,-1.9685 0.762,-3.2766 2.0828,-3.2766 0.6731,0 1.1811,0.2921 1.4351,0.7874 l 1.0795,-0.3175 c -0.3683,-0.762 -1.1303,-1.3589 -2.3876,-1.3589 -2.4638,0 -3.3147,2.2987 -3.3147,4.699 0,2.6162 0.9652,4.0894 3.0861,4.0894 z m -1.8542,-2.8829 c 0,-1.1684 0.7239,-1.9812 1.8542,-1.9812 1.1176,0 1.8415,0.8128 1.8415,1.9812 0,1.1684 -0.7239,1.9812 -1.8415,1.9812 -1.1303,0 -1.8542,-0.8128 -1.8542,-1.9812 z m 9.4488,2.8829 c 1.8161,0 2.9845,-1.3462 2.9845,-2.921 0,-1.7018 -1.1557,-2.8829 -2.7305,-2.8829 -1.1303,0 -1.8542,0.5207 -2.2352,1.1811 0.0508,-1.9685 0.762,-3.2766 2.0828,-3.2766 0.6731,0 1.1811,0.2921 1.4351,0.7874 l 1.0795,-0.3175 c -0.3683,-0.762 -1.1303,-1.3589 -2.3876,-1.3589 -2.4638,0 -3.3147,2.2987 -3.3147,4.699 0,2.6162 0.9652,4.0894 3.0861,4.0894 z m -1.8542,-2.8829 c 0,-1.1684 0.7239,-1.9812 1.8542,-1.9812 1.1176,0 1.8415,0.8128 1.8415,1.9812 0,1.1684 -0.7239,1.9812 -1.8415,1.9812 -1.1303,0 -1.8542,-0.8128 -1.8542,-1.9812 z m 9.44879,2.8829 c 1.8161,0 2.9845,-1.3462 2.9845,-2.921 0,-1.7018 -1.1557,-2.8829 -2.7305,-2.8829 -1.1303,0 -1.8542,0.5207 -2.2352,1.1811 0.0508,-1.9685 0.762,-3.2766 2.0828,-3.2766 0.6731,0 1.1811,0.2921 1.4351,0.7874 l 1.0795,-0.3175 c -0.3683,-0.762 -1.1303,-1.3589 -2.3876,-1.3589 -2.4638,0 -3.3147,2.2987 -3.3147,4.699 0,2.6162 0.9652,4.0894 3.0861,4.0894 z m -1.8542,-2.8829 c 0,-1.1684 0.7239,-1.9812 1.8542,-1.9812 1.1176,0 1.8415,0.8128 1.8415,1.9812 0,1.1684 -0.7239,1.9812 -1.8415,1.9812 -1.1303,0 -1.8542,-0.8128 -1.8542,-1.9812 z"
       id="text6-4-5-8-6-2-2-6-9-5-3-3-4-1-2-8"
       style="font-size:12.7px;line-height:7.20093px;font-family:'Atkinson Hyperlegible';-inkscape-font-specification:'Atkinson Hyperlegible';font-variant-numeric:lining-nums;text-align:center;letter-spacing:0px;text-anchor:middle;stroke-width:1.32292;stroke-linecap:square;stroke-miterlimit:3;paint-order:fill markers stroke"
       aria-label="666" />
    <path
       d="m 78.328623,116.0526 v 0.8509 h 2.2606 v 6.4008 h 1.0668 v -8.4836 h -0.7112 c -0.3683,1.0414 -1.397,1.2319 -2.6162,1.2319 z m 5.105405,0 v 0.8509 h 2.2606 v 6.4008 h 1.0668 v -8.4836 h -0.7112 c -0.3683,1.0414 -1.397,1.2319 -2.6162,1.2319 z m 5.753106,7.2517 h 1.3335 l 3.530599,-7.4549 v -1.0287 h -5.854699 v 1.0287 h 4.673599 z"
       id="text6-1"
       style="font-size:12.7px;line-height:7.20093px;font-family:'Atkinson Hyperlegible';-inkscape-font-specification:'Atkinson Hyperlegible';font-variant-numeric:lining-nums;text-align:center;letter-spacing:0px;text-anchor:middle;stroke-width:1.32292;stroke-linecap:square;stroke-miterlimit:3;paint-order:fill markers stroke"
       aria-label="117" />
    <path
       d="m 126.57629,116.0526 v 0.8509 h 2.2606 v 6.4008 h 1.0668 v -8.4836 h -0.7112 c -0.3683,1.0414 -1.397,1.2319 -2.6162,1.2319 z m 5.33401,4.8641 c 0,1.6256 1.3716,2.54 3.1369,2.54 1.778,0 3.1496,-0.9144 3.1496,-2.54 0,-1.0922 -0.6223,-1.8796 -1.5621,-2.2606 0.4445,-0.4191 0.7239,-1.016 0.7239,-1.6891 0,-1.27 -1.0287,-2.2987 -2.3114,-2.2987 -1.27,0 -2.2987,1.0287 -2.2987,2.2987 0,0.6731 0.2794,1.27 0.7239,1.6891 -0.9398,0.381 -1.5621,1.1684 -1.5621,2.2606 z m 1.1557,0 c 0,-0.9906 0.7747,-1.6383 1.9812,-1.6383 1.2192,0 1.9939,0.6477 1.9939,1.6383 0,0.9906 -0.7747,1.6002 -1.9939,1.6002 -1.2065,0 -1.9812,-0.6096 -1.9812,-1.6002 z m 0.6223,-3.9624 c 0,-0.7493 0.6096,-1.3462 1.3589,-1.3462 0.7493,0 1.3589,0.5969 1.3589,1.3462 0,0.7747 -0.6096,1.3843 -1.3589,1.3843 -0.7493,0 -1.3589,-0.6096 -1.3589,-1.3843 z m 5.9563,4.4323 c 0.3175,1.143 1.2065,2.0701 2.921,2.0701 1.5748,0 3.0099,-1.0033 3.0099,-2.9464 0,-1.8669 -1.2954,-2.921 -2.7813,-2.921 -0.6985,0 -1.3843,0.2032 -1.8288,0.635 l 0.2921,-2.3749 h 4.0005 v -1.0287 h -4.8641 l -0.5207,4.318 1.0414,0.3048 c 0.1778,-0.4191 0.762,-0.9398 1.6383,-0.9398 0.9144,0 1.905,0.6096 1.905,2.0193 0,1.3081 -0.8763,2.0447 -1.8923,2.0447 -1.1049,0 -1.6764,-0.5588 -1.8796,-1.4859 z"
       id="text6-1-0"
       style="font-size:12.7px;line-height:7.20093px;font-family:'Atkinson Hyperlegible';-inkscape-font-specification:'Atkinson Hyperlegible';font-variant-numeric:lining-nums;text-align:center;letter-spacing:0px;text-anchor:middle;stroke-width:1.32292;stroke-linecap:square;stroke-miterlimit:3;paint-order:fill markers stroke"
       aria-label="185" />
    <path
       d="m 145.23194,110.9726 v -0.9779 h -4.6736 c 2.3749,-1.7145 4.445,-3.4671 4.445,-5.4356 0,-1.4224 -1.1303,-2.2225 -2.6924,-2.2225 -1.4986,0 -2.5654,0.7747 -2.8702,2.0066 l 1.0668,0.3048 c 0.2032,-1.0287 0.9779,-1.4224 1.778,-1.4224 1.0033,0 1.5875,0.5969 1.5875,1.4732 0,1.4986 -1.7526,3.1115 -4.7498,5.3213 v 0.9525 z m 4.5466,0.1524 c 2.1844,0 3.3528,-1.5621 3.3528,-4.4069 0,-2.8194 -1.1684,-4.3815 -3.3528,-4.3815 -2.1844,0 -3.3528,1.5621 -3.3528,4.3815 0,2.8448 1.1684,4.4069 3.3528,4.4069 z m -2.1971,-4.4069 c 0,-0.7493 0.0762,-1.397 0.254,-1.9177 l 3.3528,4.8133 c -0.3429,0.3683 -0.8128,0.5715 -1.4097,0.5715 -1.4986,0 -2.1971,-1.2446 -2.1971,-3.4671 z m 2.1971,-3.4417 c 1.4859,0 2.1971,1.2319 2.1971,3.4417 0,0.7239 -0.0762,1.3462 -0.2159,1.8415 l -3.3401,-4.7752 c 0.3429,-0.3302 0.8001,-0.508 1.3589,-0.508 z m 4.59741,5.6007 h 4.2164 v 2.0955 h 1.0668 v -2.0955 h 1.5494 v -1.0033 h -1.5494 v -5.3848 h -1.0795 l -4.2037,5.3848 z m 1.1557,-1.0033 3.0607,-3.9243 v 3.9243 z"
       id="text6-1-0-6"
       style="font-size:12.7px;line-height:7.20093px;font-family:'Atkinson Hyperlegible';-inkscape-font-specification:'Atkinson Hyperlegible';font-variant-numeric:lining-nums;text-align:center;letter-spacing:0px;text-anchor:middle;stroke-width:1.32292;stroke-linecap:square;stroke-miterlimit:3;paint-order:fill markers stroke"
       aria-label="204" />
    <path
       d="m 203.28036,123.3043 v -0.9779 h -4.6736 c 2.3749,-1.7145 4.445,-3.4671 4.445,-5.4356 0,-1.4224 -1.1303,-2.2225 -2.6924,-2.2225 -1.4986,0 -2.5654,0.7747 -2.8702,2.0066 l 1.0668,0.3048 c 0.2032,-1.0287 0.9779,-1.4224 1.778,-1.4224 1.0033,0 1.5875,0.5969 1.5875,1.4732 0,1.4986 -1.7526,3.1115 -4.7498,5.3213 v 0.9525 z m 1.19379,-2.3876 c 0,1.6256 1.3716,2.54 3.1369,2.54 1.778,0 3.1496,-0.9144 3.1496,-2.54 0,-1.0922 -0.6223,-1.8796 -1.5621,-2.2606 0.4445,-0.4191 0.7239,-1.016 0.7239,-1.6891 0,-1.27 -1.0287,-2.2987 -2.3114,-2.2987 -1.27,0 -2.2987,1.0287 -2.2987,2.2987 0,0.6731 0.2794,1.27 0.7239,1.6891 -0.9398,0.381 -1.5621,1.1684 -1.5621,2.2606 z m 1.1557,0 c 0,-0.9906 0.7747,-1.6383 1.9812,-1.6383 1.2192,0 1.9939,0.6477 1.9939,1.6383 0,0.9906 -0.7747,1.6002 -1.9939,1.6002 -1.2065,0 -1.9812,-0.6096 -1.9812,-1.6002 z m 0.6223,-3.9624 c 0,-0.7493 0.6096,-1.3462 1.3589,-1.3462 0.7493,0 1.3589,0.5969 1.3589,1.3462 0,0.7747 -0.6096,1.3843 -1.3589,1.3843 -0.7493,0 -1.3589,-0.6096 -1.3589,-1.3843 z m 11.811,6.35 v -0.9779 h -4.6736 c 2.3749,-1.7145 4.445,-3.4671 4.445,-5.4356 0,-1.4224 -1.1303,-2.2225 -2.6924,-2.2225 -1.4986,0 -2.5654,0.7747 -2.8702,2.0066 l 1.0668,0.3048 c 0.2032,-1.0287 0.9779,-1.4224 1.778,-1.4224 1.0033,0 1.5875,0.5969 1.5875,1.4732 0,1.4986 -1.7526,3.1115 -4.7498,5.3213 v 0.9525 z"
       id="text6-1-0-6-0"
       style="font-size:12.7px;line-height:7.20093px;font-family:'Atkinson Hyperlegible';-inkscape-font-specification:'Atkinson Hyperlegible';font-variant-numeric:lining-nums;text-align:center;letter-spacing:0px;text-anchor:middle;stroke-width:1.32292;stroke-linecap:square;stroke-miterlimit:3;paint-order:fill markers stroke"
       aria-label="282" />
    <path
       d="m 231.34911,121.3866 c 0.2921,1.1557 1.2065,2.0701 2.921,2.0701 1.6129,0 3.0734,-0.8255 3.0734,-2.54 0,-0.889 -0.3556,-1.7272 -1.6256,-2.1209 0.889,-0.3683 1.3843,-1.1049 1.3843,-1.9685 0,-1.5748 -1.27,-2.159 -2.7432,-2.159 -1.5621,0 -2.5781,0.8001 -2.8829,2.0066 l 1.0414,0.3048 c 0.1651,-0.8382 0.7747,-1.4224 1.8161,-1.4224 0.9017,0 1.651,0.4699 1.651,1.3843 0,1.3335 -1.4478,1.4097 -2.4003,1.4097 v 0.9652 c 0.6731,0 2.6162,-0.0127 2.6162,1.6129 0,1.0541 -0.8001,1.6383 -1.9177,1.6383 -1.0795,0 -1.6891,-0.5969 -1.8796,-1.4859 z m 7.28979,0 c 0.2921,1.1557 1.2065,2.0701 2.921,2.0701 1.6129,0 3.0734,-0.8255 3.0734,-2.54 0,-0.889 -0.3556,-1.7272 -1.6256,-2.1209 0.889,-0.3683 1.3843,-1.1049 1.3843,-1.9685 0,-1.5748 -1.27,-2.159 -2.7432,-2.159 -1.5621,0 -2.5781,0.8001 -2.8829,2.0066 l 1.0414,0.3048 c 0.1651,-0.8382 0.7747,-1.4224 1.8161,-1.4224 0.9017,0 1.651,0.4699 1.651,1.3843 0,1.3335 -1.4478,1.4097 -2.4003,1.4097 v 0.9652 c 0.6731,0 2.6162,-0.0127 2.6162,1.6129 0,1.0541 -0.8001,1.6383 -1.9177,1.6383 -1.0795,0 -1.6891,-0.5969 -1.8796,-1.4859 z m 10.87119,2.0701 c 2.1844,0 3.3528,-1.5621 3.3528,-4.4069 0,-2.8194 -1.1684,-4.3815 -3.3528,-4.3815 -2.1844,0 -3.3528,1.5621 -3.3528,4.3815 0,2.8448 1.1684,4.4069 3.3528,4.4069 z m -2.1971,-4.4069 c 0,-0.7493 0.0762,-1.397 0.254,-1.9177 l 3.3528,4.8133 c -0.3429,0.3683 -0.8128,0.5715 -1.4097,0.5715 -1.4986,0 -2.1971,-1.2446 -2.1971,-3.4671 z m 2.1971,-3.4417 c 1.4859,0 2.1971,1.2319 2.1971,3.4417 0,0.7239 -0.0762,1.3462 -0.2159,1.8415 l -3.3401,-4.7752 c 0.3429,-0.3302 0.8001,-0.508 1.3589,-0.508 z"
       id="text6-1-0-6-0-0"
       style="font-size:12.7px;line-height:7.20093px;font-family:'Atkinson Hyperlegible';-inkscape-font-specification:'Atkinson Hyperlegible';font-variant-numeric:lining-nums;text-align:center;letter-spacing:0px;text-anchor:middle;stroke-width:1.32292;stroke-linecap:square;stroke-miterlimit:3;paint-order:fill markers stroke"
       aria-label="330" />
    <path
       d="m 341.06496,121.2088 h 4.2164 v 2.0955 h 1.0668 v -2.0955 h 1.5494 v -1.0033 h -1.5494 v -5.3848 h -1.0795 l -4.2037,5.3848 z m 1.1557,-1.0033 3.0607,-3.9243 v 3.9243 z m 7.3406,3.0988 h 1.3335 l 3.5306,-7.4549 v -1.0287 h -5.8547 v 1.0287 h 4.6736 z m 6.9342,0 h 1.3335 l 3.5306,-7.4549 v -1.0287 h -5.8547 v 1.0287 h 4.6736 z"
       id="text6-1-0-6-0-0-6"
       style="font-size:12.7px;line-height:7.20093px;font-family:'Atkinson Hyperlegible';-inkscape-font-specification:'Atkinson Hyperlegible';font-variant-numeric:lining-nums;text-align:center;letter-spacing:0px;text-anchor:middle;stroke-width:1.32292;stroke-linecap:square;stroke-miterlimit:3;paint-order:fill markers stroke"
       aria-label="477" />
    <path
       d="m 398.2095,121.3104 c 0.3175,1.143 1.2065,2.0701 2.921,2.0701 1.5748,0 3.0099,-1.0033 3.0099,-2.9464 0,-1.8669 -1.2954,-2.921 -2.7813,-2.921 -0.6985,0 -1.3843,0.2032 -1.8288,0.635 l 0.2921,-2.3749 h 4.0005 v -1.0287 h -4.8641 l -0.5207,4.318 1.0414,0.3048 c 0.1778,-0.4191 0.762,-0.9398 1.6383,-0.9398 0.9144,0 1.905,0.6096 1.905,2.0193 0,1.3081 -0.8763,2.0447 -1.8923,2.0447 -1.1049,0 -1.6764,-0.5588 -1.8796,-1.4859 z m 7.4041,0 c 0.3175,1.143 1.2065,2.0701 2.921,2.0701 1.5748,0 3.0099,-1.0033 3.0099,-2.9464 0,-1.8669 -1.2954,-2.921 -2.7813,-2.921 -0.6985,0 -1.3843,0.2032 -1.8288,0.635 l 0.2921,-2.3749 h 4.0005 v -1.0287 h -4.8641 l -0.5207,4.318 1.0414,0.3048 c 0.1778,-0.4191 0.762,-0.9398 1.6383,-0.9398 0.9144,0 1.905,0.6096 1.905,2.0193 0,1.3081 -0.8763,2.0447 -1.8923,2.0447 -1.1049,0 -1.6764,-0.5588 -1.8796,-1.4859 z m 7.4041,0 c 0.3175,1.143 1.2065,2.0701 2.921,2.0701 1.5748,0 3.0099,-1.0033 3.0099,-2.9464 0,-1.8669 -1.2954,-2.921 -2.7813,-2.921 -0.6985,0 -1.3843,0.2032 -1.8288,0.635 l 0.2921,-2.3749 h 4.0005 v -1.0287 h -4.8641 l -0.5207,4.318 1.0414,0.3048 c 0.1778,-0.4191 0.762,-0.9398 1.6383,-0.9398 0.9144,0 1.905,0.6096 1.905,2.0193 0,1.3081 -0.8763,2.0447 -1.8923,2.0447 -1.1049,0 -1.6764,-0.5588 -1.8796,-1.4859 z"
       id="text6-1-0-6-0-0-6-8"
       style="font-size:12.7px;line-height:7.20093px;font-family:'Atkinson Hyperlegible';-inkscape-font-specification:'Atkinson Hyperlegible';font-variant-numeric:lining-nums;text-align:center;letter-spacing:0px;text-anchor:middle;stroke-width:1.32292;stroke-linecap:square;stroke-miterlimit:3;paint-order:fill markers stroke"
       aria-label="555" />
    <path
       d="m 411.96122,109.2073 c 0.3175,1.143 1.2065,2.0701 2.921,2.0701 1.5748,0 3.0099,-1.0033 3.0099,-2.9464 0,-1.8669 -1.2954,-2.921 -2.7813,-2.921 -0.6985,0 -1.3843,0.2032 -1.8288,0.635 l 0.2921,-2.3749 h 4.0005 v -1.0287 h -4.8641 l -0.5207,4.318 1.0414,0.3048 c 0.1778,-0.4191 0.762,-0.9398 1.6383,-0.9398 0.9144,0 1.905,0.6096 1.905,2.0193 0,1.3081 -0.8763,2.0447 -1.8923,2.0447 -1.1049,0 -1.6764,-0.5588 -1.8796,-1.4859 z m 7.8994,1.9177 h 1.3335 l 3.5306,-7.4549 v -1.0287 h -5.8547 v 1.0287 h 4.6736 z m 5.82931,-1.9177 c 0.2921,1.1557 1.2065,2.0701 2.921,2.0701 1.6129,0 3.0734,-0.8255 3.0734,-2.54 0,-0.889 -0.3556,-1.7272 -1.6256,-2.1209 0.889,-0.3683 1.3843,-1.1049 1.3843,-1.9685 0,-1.5748 -1.27,-2.159 -2.7432,-2.159 -1.5621,0 -2.5781,0.8001 -2.8829,2.0066 l 1.0414,0.3048 c 0.1651,-0.8382 0.7747,-1.4224 1.8161,-1.4224 0.9017,0 1.651,0.4699 1.651,1.3843 0,1.3335 -1.4478,1.4097 -2.4003,1.4097 v 0.9652 c 0.6731,0 2.6162,-0.0127 2.6162,1.6129 0,1.0541 -0.8001,1.6383 -1.9177,1.6383 -1.0795,0 -1.6891,-0.5969 -1.8796,-1.4859 z"
       id="text6-1-0-6-0-0-6-8-9"
       style="font-size:12.7px;line-height:7.20093px;font-family:'Atkinson Hyperlegible';-inkscape-font-specification:'Atkinson Hyperlegible';font-variant-numeric:lining-nums;text-align:center;letter-spacing:0px;text-anchor:middle;stroke-width:1.32292;stroke-linecap:square;stroke-miterlimit:3;paint-order:fill markers stroke"
       aria-label="573" />
    <path
       d="m 473.94552,111.2774 c 1.8161,0 2.9845,-1.3462 2.9845,-2.921 0,-1.7018 -1.1557,-2.8829 -2.7305,-2.8829 -1.1303,0 -1.8542,0.5207 -2.2352,1.1811 0.0508,-1.9685 0.762,-3.2766 2.0828,-3.2766 0.6731,0 1.1811,0.2921 1.4351,0.7874 l 1.0795,-0.3175 c -0.3683,-0.762 -1.1303,-1.3589 -2.3876,-1.3589 -2.4638,0 -3.3147,2.2987 -3.3147,4.699 0,2.6162 0.9652,4.0894 3.0861,4.0894 z m -1.8542,-2.8829 c 0,-1.1684 0.7239,-1.9812 1.8542,-1.9812 1.1176,0 1.8415,0.8128 1.8415,1.9812 0,1.1684 -0.7239,1.9812 -1.8415,1.9812 -1.1303,0 -1.8542,-0.8128 -1.8542,-1.9812 z m 6.28649,0.8128 c 0.3175,1.143 1.2065,2.0701 2.921,2.0701 1.5748,0 3.0099,-1.0033 3.0099,-2.9464 0,-1.8669 -1.2954,-2.921 -2.7813,-2.921 -0.6985,0 -1.3843,0.2032 -1.8288,0.635 l 0.2921,-2.3749 h 4.0005 v -1.0287 h -4.8641 l -0.5207,4.318 1.0414,0.3048 c 0.1778,-0.4191 0.762,-0.9398 1.6383,-0.9398 0.9144,0 1.905,0.6096 1.905,2.0193 0,1.3081 -0.8763,2.0447 -1.8923,2.0447 -1.1049,0 -1.6764,-0.5588 -1.8796,-1.4859 z m 7.2009,-0.1778 h 4.2164 v 2.0955 h 1.0668 v -2.0955 h 1.5494 v -1.0033 h -1.5494 v -5.3848 h -1.0795 l -4.2037,5.3848 z m 1.1557,-1.0033 3.0607,-3.9243 v 3.9243 z"
       id="text6-1-0-6-0-0-6-8-9-7"
       style="font-size:12.7px;line-height:7.20093px;font-family:'Atkinson Hyperlegible';-inkscape-font-specification:'Atkinson Hyperlegible';font-variant-numeric:lining-nums;text-align:center;letter-spacing:0px;text-anchor:middle;stroke-width:1.32292;stroke-linecap:square;stroke-miterlimit:3;paint-order:fill markers stroke"
       aria-label="654" />
    <path
       d="m 488.00209,123.4567 c 1.8161,0 2.9845,-1.3462 2.9845,-2.921 0,-1.7018 -1.1557,-2.8829 -2.7305,-2.8829 -1.1303,0 -1.8542,0.5207 -2.2352,1.1811 0.0508,-1.9685 0.762,-3.2766 2.0828,-3.2766 0.6731,0 1.1811,0.2921 1.4351,0.7874 l 1.0795,-0.3175 c -0.3683,-0.762 -1.1303,-1.3589 -2.3876,-1.3589 -2.4638,0 -3.3147,2.2987 -3.3147,4.699 0,2.6162 0.9652,4.0894 3.0861,4.0894 z m -1.8542,-2.8829 c 0,-1.1684 0.7239,-1.9812 1.8542,-1.9812 1.1176,0 1.8415,0.8128 1.8415,1.9812 0,1.1684 -0.7239,1.9812 -1.8415,1.9812 -1.1303,0 -1.8542,-0.8128 -1.8542,-1.9812 z m 6.78179,2.7305 h 1.3335 l 3.5306,-7.4549 v -1.0287 h -5.8547 v 1.0287 h 4.6736 z m 11.8364,0 v -0.9779 h -4.6736 c 2.3749,-1.7145 4.445,-3.4671 4.445,-5.4356 0,-1.4224 -1.1303,-2.2225 -2.6924,-2.2225 -1.4986,0 -2.5654,0.7747 -2.8702,2.0066 l 1.0668,0.3048 c 0.2032,-1.0287 0.9779,-1.4224 1.778,-1.4224 1.0033,0 1.5875,0.5969 1.5875,1.4732 0,1.4986 -1.7526,3.1115 -4.7498,5.3213 v 0.9525 z"
       id="text6-1-0-6-0-0-6-8-9-7-1"
       style="font-size:12.7px;line-height:7.20093px;font-family:'Atkinson Hyperlegible';-inkscape-font-specification:'Atkinson Hyperlegible';font-variant-numeric:lining-nums;text-align:center;letter-spacing:0px;text-anchor:middle;stroke-width:1.32292;stroke-linecap:square;stroke-miterlimit:3;paint-order:fill markers stroke"
       aria-label="672" />
    <path
       id="rect1"
       style="fill:none;stroke:#000000;stroke-width:1.32292;stroke-linecap:square;stroke-miterlimit:3;paint-order:fill markers stroke"
       d="M 0.66145998,166.6875 H 163.44349 v 31.75 H 0.66145998 Z" />
    <path
       id="rect1-5"
       style="fill:none;stroke:#000000;stroke-width:1.32292;stroke-linecap:square;stroke-miterlimit:3;paint-order:fill markers stroke"
       d="m 172.27826,166.6875 h 163.44348 v 31.75 H 172.27826 Z" />
    <path
       id="rect1-5-2"
       style="fill:none;stroke:#000000;stroke-width:1.32292;stroke-linecap:square;stroke-miterlimit:3;paint-order:fill markers stroke"
       d="m 344.55652,166.6875 h 162.78203 v 31.75 H 344.55652 Z" />
  </g>
</svg>
